<?xml version="1.0" encoding="UTF-8" standalone="no"?>
<svg
   xmlns:dc="http://purl.org/dc/elements/1.1/"
   xmlns:cc="http://creativecommons.org/ns#"
   xmlns:rdf="http://www.w3.org/1999/02/22-rdf-syntax-ns#"
   xmlns:svg="http://www.w3.org/2000/svg"
   xmlns="http://www.w3.org/2000/svg"
   xmlns:sodipodi="http://sodipodi.sourceforge.net/DTD/sodipodi-0.dtd"
   xmlns:inkscape="http://www.inkscape.org/namespaces/inkscape"
   version="1.1"
   id="svg2"
   xml:space="preserve"
   width="4266.6665"
   height="2666.6667"
   viewBox="0 0 4266.6665 2666.6667"
   sodipodi:docname="11060.eps"><metadata
     id="metadata8"><rdf:RDF><cc:Work
         rdf:about=""><dc:format>image/svg+xml</dc:format><dc:type
           rdf:resource="http://purl.org/dc/dcmitype/StillImage" /></cc:Work></rdf:RDF></metadata><defs
     id="defs6"><clipPath
       clipPathUnits="userSpaceOnUse"
       id="clipPath144"><path
         d="m 13848.5,6582.4 c -396,935.8 -1313.9,2139.6 -1324.5,2425 -0.1,2.9 -0.2,5.7 -0.2,8.5 -2.3,110.5 88,183.2 180.9,183.2 47.7,0 96.1,-19.1 133,-62.1 819.8,-954.8 1010.8,-2554.6 1010.8,-2554.6"
         id="path142" /></clipPath></defs><sodipodi:namedview
     pagecolor="#ffffff"
     bordercolor="#666666"
     borderopacity="1"
     objecttolerance="10"
     gridtolerance="10"
     guidetolerance="10"
     inkscape:pageopacity="0"
     inkscape:pageshadow="2"
     inkscape:window-width="640"
     inkscape:window-height="480"
     id="namedview4" /><g
     id="g10"
     inkscape:groupmode="layer"
     inkscape:label="ink_ext_XXXXXX"
     transform="matrix(1.3333333,0,0,-1.3333333,0,2666.6667)"><g
       id="g12"
       transform="scale(0.1)"><path
         d="M 0,0 H 32000 V 20000 H 0 Z"
         style="fill:#ffffff;fill-opacity:1;fill-rule:nonzero;stroke:none"
         id="path14" /><path
         d="m 28603.8,1669.5 -23929.43,8.2 c 0,0 -4043.897,5573.2 -1887.19,9301.5 2156.7,3728.4 5306.79,1096.5 5569.41,3790.1 8.97,91.1 1.8,181.4 1.8,269.5 -0.13,21 0.27,41.6 1.38,62.3 80.69,1546.9 1090.07,2546.7 2422.13,3121.8 43,18.7 86.3,36.7 129.9,54.4 2124.1,860.8 4996.3,683.7 6267.8,-56.4 2163.3,-1259.3 2149.8,-2775.1 6617,-2275.1 4467.2,499.9 5319.2,-3681 4156.3,-5811 -1650,-3022.6 4575.4,-2526.1 650.9,-8465.3"
         style="fill:#ebf3fa;fill-opacity:1;fill-rule:nonzero;stroke:none"
         id="path16" /><path
         d="m 19302.1,10936 -581.6,572.5 -570.7,561.8 c -27.7,33 -33.4,66.4 -24,99.7 29.4,104.7 206.9,208.8 310.6,296.1 l 10.4,8.9 c 136.6,115.2 342.6,97.7 457.7,-38.9 l 697.7,-827 h 0.1 l 206.9,-245.3 c 115.2,-136.6 97.7,-342.6 -38.9,-457.7 l -10.4,-8.9 c -136.6,-115.2 -342.6,-97.7 -457.8,38.8"
         style="fill:#ffb27d;fill-opacity:1;fill-rule:nonzero;stroke:none"
         id="path18" /><path
         d="m 19471.3,14620.2 c -6.7,-72.9 -89,-190.3 -237,-207.9 -747.8,-89.1 -1213.5,146.9 -1235.2,146.6 -568.5,-2.7 -971.1,204.4 -1092.9,97.2 -4.5,-3.9 -3.3,-12.4 3.1,-24.4 111.5,-216.3 1836.7,-1654.7 1861.8,-1814.3 26.5,-168.5 -3209.1,-961.3 -3209.1,-961.3 0,0 -478,298 -1013.3,689.1 -271.5,198.1 -557.5,420.1 -803.4,639.5 -248,220.7 -455.4,439.1 -566.2,627.3 l -0.6,1.2 c -16.7,28.2 -31.1,55.7 -43,82.6 -1.9,4.2 -3.7,8 -5.1,11.6 -86.6,203.3 -234.1,382.3 -401.8,534.7 -434.5,394.9 -1004.4,611.9 -1004.4,611.9 l 2375.9,1267.8 c 0,0 2181.5,-256.3 2530.5,-468.1 508.6,-308.9 1573.8,-535.3 1778.7,-655 152.1,-88.7 953.7,-376.5 1012.3,-402.3 25.1,-11.3 58.5,-85.1 49.7,-176.2"
         style="fill:#ffb27d;fill-opacity:1;fill-rule:nonzero;stroke:none"
         id="path20" /><path
         d="m 13348.5,16685.4 c 0,0 -0.6,-4.8 -1.9,-13.9 v -0.1 c -9.7,-71.5 -58.8,-407 -169.1,-789.6 v -0.1 c -4.2,-14.1 -8.3,-28.4 -12.6,-42.6 v -0.2 c -1.9,-6.3 -3.9,-12.8 -5.8,-19.1 v -0.2 c -137.2,-454 -360.4,-957.2 -704.8,-1160.1 h -0.2 c -19.7,-11.6 -39.8,-22.2 -60.4,-31.9 -47.7,-22.2 -97.6,-38.7 -149.8,-48.7 -38.5,-7.6 -78,-11.4 -119,-11.4 0,0 -302.1,36.3 -754.1,91.3 -24.7,3 -49.9,6.2 -75.6,9.4 -817.1,99.7 -2065.91,254.2 -2936.81,370.6 -0.14,21 0.27,41.6 1.38,62.3 80.69,1546.9 1090.07,2546.7 2422.13,3121.8 707.4,-423 1370.2,-820.1 1845.1,-1104.8 l 0.4,-0.1 1.1,-0.7 c 30.3,-18.2 60,-36 88.7,-53.1 l 1.8,-1.1 c 388.7,-233.1 629.5,-377.7 629.5,-377.7"
         style="fill:#f99746;fill-opacity:1;fill-rule:nonzero;stroke:none"
         id="path22" /><path
         d="m 13533.8,14890.4 c 1,-2.1 2.4,-4 2.8,-6.2 223.3,-1411.6 1042.9,-1178.7 1042.9,-1178.7 l -30.8,-1160.3 c -271.5,198.1 -557.5,420.1 -803.4,639.5 -248,220.7 -455.4,439.1 -566.2,627.3 l -0.6,1.2 c -19.3,35 -33.8,63 -43,82.6 -1.9,4.2 -3.7,8 -5.1,11.6 -86.6,203.3 -234.1,382.3 -401.8,534.7 87.2,149.1 189.1,318.5 289.8,484.3 122.7,201.7 423.7,181.6 515.4,-36"
         style="fill:#efa26f;fill-opacity:1;fill-rule:nonzero;stroke:none"
         id="path24" /><path
         d="m 12628.5,17119.4 c 0,0 -766.6,-663 -1082.3,-1128.9 l 228.8,-396.8 -389.2,36.7 c 0,0 -198.2,-719.3 -90.5,-962.3 l 1061.3,-99.9 1223.3,1957.7 -951.4,593.5"
         style="fill:#ed7d2b;fill-opacity:1;fill-rule:nonzero;stroke:none"
         id="path26" /><path
         d="m 11365.1,14505 c -31.4,288.5 248.4,877.5 248.4,877.5 l 941,-187.8 -724.5,763.6 c 163.5,338.5 555.8,855.1 798.5,1161.1 120.9,152.4 204.6,252.5 204.6,252.5 696.9,-529.6 1345.7,-1057.5 1345.7,-1057.5 -284.5,-110.2 -550.7,-409.5 -772.2,-740.2 -368.2,-549.5 -612.9,-1185.9 -612.9,-1185.9 -564.8,53.4 -1428.6,116.7 -1428.6,116.7"
         style="fill:#dceaff;fill-opacity:1;fill-rule:nonzero;stroke:none"
         id="path28" /><path
         d="m 11365.1,14505 c -31.4,288.5 248.4,877.5 248.4,877.5 l 941,-187.8 -724.5,763.6 c 163.5,338.5 555.8,855.1 798.5,1161.1 12.4,-843.9 778.1,-1545.2 778.1,-1545.2 -368.2,-549.5 -612.9,-1185.9 -612.9,-1185.9 -564.8,53.4 -1428.6,116.7 -1428.6,116.7"
         style="fill:#cbe1fd;fill-opacity:1;fill-rule:nonzero;stroke:none"
         id="path30" /><path
         d="m 12411.1,16365.9 c 63.3,-6.5 109.3,-63.1 102.8,-126.5 -6.6,-63.3 -63.2,-109.3 -126.5,-102.7 -63.3,6.5 -109.3,63.2 -102.8,126.5 6.6,63.3 63.2,109.3 126.5,102.7"
         style="fill:#f99746;fill-opacity:1;fill-rule:nonzero;stroke:none"
         id="path32" /><path
         d="M 13774,13690.6 14661.2,10580.3 21432,12511.7 20544.8,15622 13774,13690.6"
         style="fill:#82b378;fill-opacity:1;fill-rule:nonzero;stroke:none"
         id="path34" /><path
         d="m 21652.5,11980.3 -6924.1,-1276.9 -586.6,3180.7 6924.1,1277 586.6,-3180.8"
         style="fill:#a8d29f;fill-opacity:1;fill-rule:nonzero;stroke:none"
         id="path36" /><path
         d="m 20897.9,12218.2 -1398.6,-257.9 h -0.3 l -167,-30.8 h -0.2 l -874.9,-161.4 -81.2,-15 -617.3,-113.8 -195.3,-36 -125.3,-23.2 -89.7,-16.5 -292,-53.8 -120.8,-22.2 -73.4,-13.7 -69.7,-12.8 -55.8,-10.2 -247.2,-45.7 -70.1,-12.9 -1070.7,-197.4 c -167.3,-30.9 -327.9,79.7 -358.8,247 l -167.3,907.6 -173,937.8 c -30.9,167.3 79.8,328 247.1,358.9 l 2527,466 1183.2,218.2 336.8,62.2 h 0.3 l 423.7,78 13.8,2.7 h 0.2 l 1064.5,196.2 c 167.3,30.9 327.9,-79.7 358.8,-247 l 340.3,-1845.4 c 9.5,-51.8 5.5,-103.2 -9.6,-150 -33.6,-104.5 -122,-187.5 -237.5,-208.9 z m 384.7,250.8 -295.4,1601.9 -0.2,0.6 -145.4,788.8 -75.5,-13.9 -1296.7,-239.2 h -0.2 l -14.7,-2.8 -971.4,-179 -124.2,-22.9 h -0.2 l -1041.4,-192.1 -2737.8,-504.9 -0.5,-0.1 -1.8,-0.4 -46.5,-8.6 -1.4,-0.1 -1.1,-0.3 -69.6,-12.8 105.2,-570.6 123,-667.2 265.8,-1441.3 1496.2,275.9 66.6,12.3 248.1,45.8 55.2,10.2 72.8,13.4 66.5,12.2 126.9,23.5 309.6,57.1 87.8,16.1 121.8,22.5 106.3,19.6 621.4,114.6 h 0.2 l 126.2,23.3 99.4,18.4 860.3,158.6 773,142.5 282.5,52.1 862.3,159.1 -53.1,287.7"
         style="fill:#82b378;fill-opacity:1;fill-rule:nonzero;stroke:none"
         id="path38" /><path
         d="m 18027.4,12144.1 c -441.8,-73.2 -859.2,225.7 -932.4,667.5 -73.1,441.8 225.8,859.2 667.5,932.3 441.8,73.2 859.2,-225.7 932.4,-667.5 73.1,-441.8 -225.7,-859.2 -667.5,-932.3"
         style="fill:#82b378;fill-opacity:1;fill-rule:nonzero;stroke:none"
         id="path40" /><path
         d="m 16337.9,12331.3 c -163.1,-27 -317.2,83.3 -344.2,246.4 -27,163.1 83.3,317.2 246.4,344.2 163.1,27 317.2,-83.3 344.2,-246.5 27,-163 -83.3,-317.1 -246.4,-344.1"
         style="fill:#82b378;fill-opacity:1;fill-rule:nonzero;stroke:none"
         id="path42" /><path
         d="m 19557.4,12925 c -163.1,-27 -317.2,83.3 -344.2,246.4 -27,163.1 83.3,317.2 246.4,344.2 163.1,27 317.2,-83.3 344.2,-246.4 27,-163.1 -83.3,-317.2 -246.4,-344.2"
         style="fill:#82b378;fill-opacity:1;fill-rule:nonzero;stroke:none"
         id="path44" /><path
         d="m 17151.9,10851.8 -25.6,68.8 -171.6,462.5 c -4,10.8 -7.4,21.8 -10.1,32.7 -38.5,153 44.2,314.8 195.3,370.9 l 17.7,6.6 c 162,60.1 343.7,-23.2 403.8,-185.1 l 160,-431.2 11.6,-31.3 25.5,-68.8 c 60.1,-162 -23.2,-343.6 -185.1,-403.7 l -17.8,-6.6 c -161.9,-60.1 -343.6,23.2 -403.7,185.2"
         style="fill:#ffb27d;fill-opacity:1;fill-rule:nonzero;stroke:none"
         id="path46" /><path
         d="m 17144.2,11226.3 c -28.6,77.2 -79.2,216.9 -89.4,291.5 -2.8,21.1 8.9,59.9 48.9,95.8 24,21.6 58,42.2 105.1,57.2 22.1,7.1 44.2,12.9 66.9,15.3 26.5,2.6 53.1,1.6 79.3,-3.2 23.7,-4.4 45.1,-20.7 56.3,-44.4 l 0.2,-0.4 c 37.2,-79.5 82.5,-186.6 107.5,-280.5 17.3,-64.9 -11.7,-130.1 -68.5,-150.2 l -26.6,-9.5 -135.9,-48.4 c -56.5,-20 -120.6,13.8 -143.8,76.8"
         style="fill:#ffd3b6;fill-opacity:1;fill-rule:nonzero;stroke:none"
         id="path48" /><path
         d="m 17144.2,11226.3 c -28.6,77.2 -79.2,216.9 -89.4,291.5 -2.8,21.1 8.9,59.9 48.9,95.8 9.1,3.8 18.6,7.3 28.8,10.6 22.2,7.1 44.2,12.9 66.9,15.2 26.6,2.7 53.1,1.7 79.4,-3.1 23.7,-4.4 45.1,-20.7 56.3,-44.4 l 0.2,-0.4 c 37.2,-79.5 82.5,-186.7 107.5,-280.5 11.1,-41.6 3.2,-83.2 -18.9,-113.1 l -135.9,-48.4 c -56.5,-20 -120.6,13.8 -143.8,76.8"
         style="fill:#ffc197;fill-opacity:1;fill-rule:nonzero;stroke:none"
         id="path50" /><path
         d="m 16505.2,11066.1 -94,356.3 c -28.6,108.3 36.6,220.3 144.9,248.9 l 40.3,10.6 c 108.3,28.6 220.3,-36.6 248.8,-144.9 l 94.1,-356.4 c 28.6,-108.2 -36.7,-220.2 -144.9,-248.8 l -40.4,-10.6 c -108.2,-28.6 -220.2,36.6 -248.8,144.9"
         style="fill:#ffb27d;fill-opacity:1;fill-rule:nonzero;stroke:none"
         id="path52" /><path
         d="m 16524.1,11258.2 c -16.9,65.5 -46.7,183.8 -49.6,245.7 -1.1,22.5 18.3,67.5 77.7,96.4 14.4,7.1 31,13.2 50.3,17.8 17.5,4.2 34.8,7.3 52.3,7.5 20.6,0.3 40.9,-2.5 60.8,-8.3 17.9,-5.3 33.3,-20.4 40.3,-40.6 l 0.2,-0.3 c 23.4,-68 51.2,-159.2 64.4,-238 9.1,-54.5 -17.5,-105.9 -62.4,-118.2 l -32.1,-9 -96.4,-26.6 c -44.6,-12.3 -91.7,20.2 -105.5,73.6"
         style="fill:#ffd3b6;fill-opacity:1;fill-rule:nonzero;stroke:none"
         id="path54" /><path
         d="m 16524.1,11258.2 c -16.9,65.5 -46.7,183.8 -49.6,245.7 -1.1,22.5 18.3,67.5 77.7,96.4 16.3,3.8 32.6,6.6 49.1,6.8 20.6,0.3 40.9,-2.5 60.8,-8.4 17.8,-5.3 33.3,-20.3 40.3,-40.5 l 0.2,-0.4 c 23.4,-67.9 51.2,-159.2 64.3,-238 7.6,-45.1 -9.4,-88.1 -40.9,-108.6 l -96.4,-26.6 c -44.6,-12.3 -91.7,20.2 -105.5,73.6"
         style="fill:#ffc197;fill-opacity:1;fill-rule:nonzero;stroke:none"
         id="path56" /><path
         d="m 17833.5,10857.7 c -1,2.5 -1.8,5.1 -2.6,7.7 l -116.1,467.1 c -51,205.4 61.5,416.5 250.2,469.2 l 96.6,27 c 181.1,50.6 369.2,-62.7 429,-253.6 l 38.4,-154.3 77.7,-312.9 c 51.1,-205.4 -61.5,-416.5 -250.1,-469.1 l -96.7,-27 c -178.6,-49.9 -364,59.6 -426.4,245.9"
         style="fill:#ffb27d;fill-opacity:1;fill-rule:nonzero;stroke:none"
         id="path58" /><path
         d="m 17965.3,11070.3 -100.3,227.3 -0.4,1.4 c -2.3,9.2 -4.1,18.4 -5.4,27.5 -0.6,3.8 -1,7.6 -1.3,11.4 -0.2,1.7 -0.2,3.3 -0.1,4.9 1,24.9 27.6,41.8 51.2,30.8 46.4,-21.7 100.3,-28 153.4,-14 l 19.8,5.3 0.6,0.1 64.4,17.1 c 51.4,13.5 94.5,42.7 125.8,81.1 3.9,4.6 7.4,9.4 10.8,14.2 31.4,44.5 101.5,32.6 115.7,-19.9 l 0.4,-1.5 35.7,-248.8 c 16.2,-61.6 -31.6,-120.4 -93.1,-136.7 l -73.4,-19.4 -156.5,-41.3 c -61.7,-16.2 -131.1,-1 -147.3,60.5"
         style="fill:#ffd3b6;fill-opacity:1;fill-rule:nonzero;stroke:none"
         id="path60" /><path
         d="m 17965.3,11070.3 -100.3,227.3 -0.4,1.4 c -0.9,5.4 -3.6,22 -6.8,43.8 1,24.9 27.6,41.8 51.2,30.8 46.4,-21.7 100.3,-28 153.4,-14 l 19.8,5.3 0.6,0.1 64.4,17.1 c 51.4,13.5 94.5,42.7 125.8,81.1 11.7,-8.1 20.9,-20.2 25.1,-35.9 l 0.4,-1.4 35.7,-248.9 c 13.7,-51.8 -18.1,-101.6 -65.1,-125.9 l -156.5,-41.3 c -61.7,-16.2 -131.1,-1 -147.3,60.5"
         style="fill:#ffc197;fill-opacity:1;fill-rule:nonzero;stroke:none"
         id="path62" /><path
         d="m 16396.1,15171.9 c 0,0 -114.5,893.7 234.5,681.7 508.6,-308.9 1573.7,-535.2 1778.7,-654.8 152.1,-88.7 953.8,-376.6 1012.2,-402.5 25.2,-11.2 73.8,-109.6 26.9,-205.7 -32.1,-65.9 -112.1,-187.2 -251,-241.2 -498.1,-193.7 -1176.6,209.7 -1198.3,209.6 -568.6,-2.8 -1121.1,60.8 -1281.7,37.8 -55.9,-8 -321.3,575.1 -321.3,575.1"
         style="fill:#ffb27d;fill-opacity:1;fill-rule:nonzero;stroke:none"
         id="path64" /><path
         d="m 19481.1,14781.6 -562.8,204.7 c 0,0 -54.9,-111.8 -27.9,-182.2 26.9,-70.4 548.2,-194.3 590.7,-22.5"
         style="fill:#ffc197;fill-opacity:1;fill-rule:nonzero;stroke:none"
         id="path66" /><path
         d="m 9259.6,7826.8 112.01,-90.9 c 0,0 306.41,109.9 375.55,-254.2 0,0 18.41,-155.2 -79.88,-155.5 -98.3,-0.3 -57.74,17 -196.93,12.9 -139.2,-4.1 -254.56,69.3 -274.94,182.2 l -66.6,95.7 130.79,209.8"
         style="fill:#ea8e50;fill-opacity:1;fill-rule:nonzero;stroke:none"
         id="path68" /><path
         d="m 9246.91,7631.6 c 89.37,93.3 82.17,162.3 82.17,162.3 0,0 -1034.77,847.2 -1139.7,916.2 -71.52,47 -833.57,722.6 -1189.79,1134.5 -176.7,204.3 -395.57,125 -645.98,53.2 l -206.22,-59.2 c -249,-71.4 -313.76,-419.7 -109.45,-588.9 575.41,-476.6 1532.63,-1012.7 1711.73,-1125.4 444.63,-279.7 1314.93,-612 1314.93,-612 0,0 105.58,39.2 182.31,119.3"
         style="fill:#1e3d70;fill-opacity:1;fill-rule:nonzero;stroke:none"
         id="path70" /><path
         d="m 10427.8,2426.7 c 0,0 251.1,-188.2 635.9,-88.8 0,0 310.2,70.7 378.3,-84 0,0 -475.8,-241.7 -596.2,-307.8 -90.8,-49.8 -185.5,-128.5 -252.4,-189.3 -53,-48.1 -135.5,-41.6 -180.7,14 -20.9,25.7 -44.9,56.3 -71.1,91.9 -73.4,99.4 -244.3,420.6 -244.3,420.6 l 330.5,143.4"
         style="fill:#204272;fill-opacity:1;fill-rule:nonzero;stroke:none"
         id="path72" /><path
         d="m 7562.75,9300.4 c 0,969.7 786.09,1755.7 1755.77,1755.7 969.68,0 1755.78,-786 1755.78,-1755.7 0,-969.7 -786.1,-1755.8 -1755.78,-1755.8 -969.68,0 -1755.77,786.1 -1755.77,1755.8"
         style="fill:#e2810e;fill-opacity:1;fill-rule:nonzero;stroke:none"
         id="path74" /><path
         d="m 7409.58,9300.4 c 0,969.7 786.08,1755.7 1755.77,1755.7 969.65,0 1755.75,-786 1755.75,-1755.7 0,-969.7 -786.1,-1755.8 -1755.75,-1755.8 -969.69,0 -1755.77,786.1 -1755.77,1755.8"
         style="fill:#ffc76c;fill-opacity:1;fill-rule:nonzero;stroke:none"
         id="path76" /><path
         d="m 9165.35,10783.9 c -829.45,0 -1504.26,-674.8 -1504.26,-1504.3 0,-829.4 674.81,-1504.2 1504.26,-1504.2 829.45,0 1504.25,674.8 1504.25,1504.2 0,829.5 -674.8,1504.3 -1504.25,1504.3 z m 0,-3104 c -427.29,0 -829.01,166.4 -1131.16,468.6 -302.14,302.1 -468.54,703.8 -468.54,1131.1 0,427.3 166.4,829 468.54,1131.2 302.15,302.1 703.87,468.5 1131.16,468.5 427.3,0 829.01,-166.4 1131.15,-468.5 302.1,-302.2 468.5,-703.9 468.5,-1131.2 0,-427.3 -166.4,-829 -468.5,-1131.1 -302.14,-302.2 -703.85,-468.6 -1131.15,-468.6"
         style="fill:#ffa412;fill-opacity:1;fill-rule:nonzero;stroke:none"
         id="path78" /><path
         d="m 9385.58,8815.3 c 4.09,34.5 2.82,65.5 -3.78,92.9 -6.61,27.5 -19.72,53.2 -39.27,77.2 -19.58,23.9 -45.76,47 -78.54,69.3 -32.79,22.2 -73.35,44.9 -121.7,68.1 -83.07,40.7 -157.99,81.9 -224.77,123.5 -66.81,41.7 -122.81,87.3 -168.04,136.8 -45.25,49.5 -78.33,105.1 -99.27,166.7 -20.93,61.6 -26.62,132.7 -17.07,213.2 8.28,69.8 28.21,132 59.8,186.6 31.57,54.5 72.89,100.4 123.94,137.7 51.04,37.2 110.2,65.4 177.5,84.5 67.27,19.1 141.15,27.6 221.61,25.6 l 31.28,263.6 212.22,-25.2 -31.72,-267.3 c 74.86,-18.9 141.44,-47.2 199.74,-84.9 58.28,-37.8 106.23,-83.4 143.82,-137 37.55,-53.7 64.15,-114.9 79.74,-183.8 15.57,-68.9 18.5,-144.5 8.76,-226.6 l -383.32,45.5 c 11.69,98.6 -1.44,174.9 -39.41,229 -37.98,54 -93.67,85.4 -167.06,94.1 -39.79,4.8 -74.72,3.3 -104.76,-4.4 -30.06,-7.7 -55.51,-20.1 -76.38,-37.2 -20.85,-17.1 -37.28,-38.2 -49.23,-63.5 -11.96,-25.2 -19.74,-53 -23.35,-83.4 -3.61,-30.4 -2.45,-58.5 3.47,-84.1 5.91,-25.7 18.46,-50.3 37.65,-73.9 19.17,-23.5 45.57,-46.6 79.19,-69.3 33.62,-22.8 75.79,-47.1 126.51,-73.2 81.95,-42.2 156.11,-84.3 222.42,-126.3 66.29,-42 122.04,-88 167.23,-137.9 45.18,-49.9 78.25,-105.7 99.19,-167.3 20.92,-61.7 26.66,-132.3 17.21,-212 -8.58,-72.3 -28.87,-135.7 -60.89,-190.2 -32.04,-54.5 -73.53,-100 -124.48,-136.4 -50.95,-36.4 -110.43,-63.5 -178.45,-81.3 -68,-17.7 -142.24,-25.6 -222.7,-23.5 l -29.1,-245.2 -210.89,25 28.95,244 c -72.54,16.1 -141.6,40.5 -207.19,73.3 -65.61,32.8 -122.18,75.5 -169.73,128.2 -47.55,52.7 -83.04,116.3 -106.5,190.7 -23.45,74.4 -29.33,160.9 -17.64,259.4 l 383.33,-45.4 c -6.92,-58.4 -4.53,-108 7.21,-148.9 11.72,-41 29.9,-74.8 54.54,-101.5 24.63,-26.6 53.85,-46.8 87.67,-60.4 33.8,-13.5 68.82,-22.5 105.1,-26.8 41.55,-4.9 78.66,-3.9 111.32,3 32.65,7 60.71,18.7 84.19,35 23.46,16.4 42.03,36.9 55.71,61.5 13.69,24.6 22.33,52.1 25.94,82.5"
         style="fill:#ffa412;fill-opacity:1;fill-rule:nonzero;stroke:none"
         id="path80" /><path
         d="m 10575.2,2522.3 c 0,0 -152.9,-352.6 -505.9,-287.8 0,0 -720.24,594.8 -1214.29,1212.7 -160.46,200.7 -297.09,403.8 -377.36,589.7 -327.63,758.6 -1211.89,1889.9 -1774.11,2463.3 l 1406.62,508.9 c 0,0 450.56,-906.4 1050.04,-2019.6 432.02,-802.2 941.3,-1711.8 1415,-2467.2"
         style="fill:#2b478b;fill-opacity:1;fill-rule:nonzero;stroke:none"
         id="path82" /><path
         d="M 9160.2,4989.5 8855.01,3447.2 c -160.46,200.7 -297.09,403.8 -377.36,589.7 -327.63,758.6 -1211.89,1889.9 -1774.11,2463.3 l 1406.62,508.9 c 0,0 450.56,-906.4 1050.04,-2019.6"
         style="fill:#233862;fill-opacity:1;fill-rule:nonzero;stroke:none"
         id="path84" /><path
         d="m 8010.41,2222.1 c 0,0 -15.32,-281.4 325.73,-318.9 0,0 211.09,-5.5 211.64,-184.5 l -1027.12,0.3 c 0,0 -9.11,73.2 -16.09,227.9 -5.37,118.8 115.14,429.4 115.14,429.4 l 390.7,-154.2"
         style="fill:#204272;fill-opacity:1;fill-rule:nonzero;stroke:none"
         id="path86" /><path
         d="m 7648.79,7009.1 c 0,0 626.64,-688.6 1024.43,-1929.1 216.42,-675 -396.69,-2371.9 -516.21,-2961.5 0,0 -411.29,-34.9 -692.51,73.8 0,0 -21.38,1217.8 143.1,2156.4 92.04,525.2 -825.07,1123.4 -1225.82,2072.5 -272.63,645.7 59.03,634.8 466.62,650.3 l 800.39,-62.4"
         style="fill:#2b478b;fill-opacity:1;fill-rule:nonzero;stroke:none"
         id="path88" /><path
         d="m 6925.42,10081 c -348.65,-196.8 -1062.4,-15.3 -1062.4,-15.3 0,0 289.86,331.4 158.15,865.1 l 273.74,-139 294.04,-149.4 c 0,0 19.01,-94.2 32.23,-263.5 3.36,-43.6 6.37,-92.3 8.46,-145.5 179.02,-54.3 295.78,-152.4 295.78,-152.4"
         style="fill:#ffb07b;fill-opacity:1;fill-rule:nonzero;stroke:none"
         id="path90" /><path
         d="m 8203.85,7044.6 c 0,-61.3 -70.59,-90.6 -85.59,-93.6 -140.62,-25.7 -533.26,-178.4 -886.96,-213.4 -297.83,-31.2 -574.33,-1.6 -878.12,59.4 -40.23,8.1 -134.66,33.5 -141.37,72.1 -8.38,42.1 -1171.75,2371.6 -267.38,3372.3 21.24,23.5 199.77,-18.8 363.02,-57.6 150.78,-35.7 289.08,-15.8 412.57,33.7 l 153.1,-80.5 c 188.03,-104.8 543.78,-477 585.42,-769.1 21.13,-148.5 106.07,-258.5 130.65,-389.2 9.13,-48.3 18.44,-95.5 27.94,-141.5 18.53,-90.3 37.63,-176.1 57.27,-257.8 53.18,-220.9 109.34,-411.1 164.47,-575.4 58.67,-174.4 116.23,-319.5 167.63,-440.8 66.69,-157.4 123.03,-275 158.23,-365.1 24.87,-63.4 39.12,-113.1 39.12,-153.5"
         style="fill:#aec3ff;fill-opacity:1;fill-rule:nonzero;stroke:none"
         id="path92" /><path
         d="m 8164.73,7198.1 c -1642.24,773.7 -2210.98,2259.4 -2210.98,2259.4 0,0 1334.26,-492.2 1663.38,-620.3 18.53,-90.3 37.63,-176.1 57.27,-257.8 53.18,-220.9 109.34,-411.1 164.47,-575.4 58.67,-174.4 116.23,-319.5 167.63,-440.8 66.69,-157.4 123.03,-275 158.23,-365.1"
         style="fill:#91b0f2;fill-opacity:1;fill-rule:nonzero;stroke:none"
         id="path94" /><path
         d="m 9125.55,7646.5 141.92,-52.1 c 0,0 284.18,201 461.12,-125.8 0,0 64,-142.8 -37.31,-173.8 -101.3,-31 -64.46,-1.8 -206.86,-49.2 -142.39,-47.5 -282.66,-13.3 -336.46,88.4 l -96.44,70.8 74.03,241.7"
         style="fill:#ffb07b;fill-opacity:1;fill-rule:nonzero;stroke:none"
         id="path96" /><path
         d="m 9242.36,7445.8 c 52.46,136.9 76.42,198.9 76.42,198.9 0,0 -1072.32,874 -1181.57,949 -74.45,51.1 -815.67,605.1 -1177.04,1036.9 -179.26,214.2 -461.9,312.1 -735.26,254.8 l -225.11,-47.2 c -271.8,-57 -360.11,-401 -149.26,-581.8 593.82,-509.1 1595.4,-1099.5 1782.14,-1222.3 463.59,-304.9 1488.98,-732.1 1488.98,-732.1 0,0 79.49,36.3 120.7,143.8"
         style="fill:#aec3ff;fill-opacity:1;fill-rule:nonzero;stroke:none"
         id="path98" /><path
         d="m 6621.18,10378.9 c -342.85,-19.2 -565.81,263.8 -565.81,263.8 0,0 155.02,85.9 239.54,149.1 l 294.04,-149.4 c 0,0 19.01,-94.2 32.23,-263.5"
         style="fill:#ea8e50;fill-opacity:1;fill-rule:nonzero;stroke:none"
         id="path100" /><path
         d="m 6767.25,10730.9 c 0,0 -519.48,-372.8 -746.65,-45.7 -227.18,327.1 -447.23,499.2 -125.16,751.1 322.06,251.8 473.89,172.3 576.27,81.5 102.38,-90.7 424.81,-681.5 295.54,-786.9"
         style="fill:#ffb07b;fill-opacity:1;fill-rule:nonzero;stroke:none"
         id="path102" /><path
         d="m 6526.59,11813.2 c -18.63,125.7 -60.54,214.2 -60.54,214.2 0,0 -32.59,-135 -279.38,-116.4 -246.8,18.6 -637.94,-24.3 -768.32,-305.5 -8.3,-17.9 -15.7,-36.3 -22.27,-55.2 -23.6,62.4 -29.28,155.8 -29.28,155.8 -46.9,-121 0,-272.5 0,-272.5 h 0.02 c -0.71,-4.4 -1.29,-8.8 -1.93,-13.2 -54.46,-46.1 -100.21,-189.2 -100.21,-189.2 16.44,39.9 56.53,65.9 92.26,82 -1.11,-218.8 87.64,-432.8 243.4,-496.5 227.78,-93.1 225.95,-22 455.03,-174 0,0 61.45,76.2 19.54,127.5 -41.91,51.2 -200.23,125.7 -111.76,200.2 88.48,74.5 121.07,-9.3 153.67,41.9 32.59,51.2 -130.38,200.2 79.16,339.9 209.54,139.7 349.23,335.3 330.61,461"
         style="fill:#233862;fill-opacity:1;fill-rule:nonzero;stroke:none"
         id="path104" /><path
         d="m 25771.9,8125.3 c 0,0 36,-24.8 49.5,-78.7 10.4,-41.3 -0.3,-105.1 -3.5,-155.8 -6.9,-108 142.5,-266.6 239,-321.8 96.6,-55.2 0,229.9 0,298.8 0,69 27.6,119.6 -50.5,275.9 -78.2,156.3 -234.5,-18.4 -234.5,-18.4"
         style="fill:#ffb27d;fill-opacity:1;fill-rule:nonzero;stroke:none"
         id="path106" /><path
         d="m 23593.3,10764.9 c -28.5,362.8 365.6,611.5 676.8,422.8 6.4,-3.9 12.7,-7.8 18.9,-11.8 465.9,-299.9 1360.6,-1519.4 1493.1,-1762.1 138.1,-252.8 320.6,-1332.5 320.6,-1332.5 0,0 -252.3,-92.3 -370.3,3.4 0,0 -394.8,936.3 -539.8,1096.9 -152.9,169.3 -1566.9,950.9 -1580.3,1282.5 -3.6,87.7 -10.6,193.1 -19,300.8"
         style="fill:#ed7d2b;fill-opacity:1;fill-rule:nonzero;stroke:none"
         id="path108" /><path
         d="m 26406.3,2574.8 c 0,0 187.8,-171.4 151.2,-293.2 -36.7,-121.8 -206.2,-203 -229.1,-351.9 -22.9,-148.8 -114.5,-230 -197,-230 -82.5,0 -393.2,0 -393.2,0 0,0 -60.7,104.7 85.9,136.3 146.6,31.6 201.9,206.5 192.8,368.9 -9.2,162.4 13.7,378.9 13.7,378.9 l 311.5,72.2 64.2,-81.2"
         style="fill:#224275;fill-opacity:1;fill-rule:nonzero;stroke:none"
         id="path110" /><path
         d="m 24101.8,2131.5 c 0,0 33.7,-390.2 -48.7,-430.8 l -1055.4,2.2 c 0,0 0,121.8 169.5,148.9 169.5,27 467.3,126.3 517.7,347.3 50.4,221.1 416.9,-67.6 416.9,-67.6"
         style="fill:#224275;fill-opacity:1;fill-rule:nonzero;stroke:none"
         id="path112" /><path
         d="m 23210.8,7642.3 c 0,0 55.7,-683.9 121.1,-1505.9 88.9,-1116.6 195.8,-2488.2 206.4,-2748.1 18.3,-451.2 91.7,-1172.9 91.7,-1172.9 0,0 174,-171.5 522.3,-99.2 0,0 310.3,1030.3 399,2120.4 1.4,17.9 2.7,35.9 4.1,53.9 82.5,1109.7 210.7,3446.5 210.7,3446.5 l -1555.3,-94.7"
         style="fill:#aec3ff;fill-opacity:1;fill-rule:nonzero;stroke:none"
         id="path114" /><path
         d="m 23210.8,7642.3 c 0,0 55.7,-683.9 121.1,-1505.9 l 1219.4,-1899.8 c 1.4,17.9 2.7,35.9 4.1,53.9 82.5,1109.7 210.7,3446.5 210.7,3446.5 l -1555.3,-94.7"
         style="fill:#91b0f2;fill-opacity:1;fill-rule:nonzero;stroke:none"
         id="path116" /><path
         d="m 23465,7561.1 c 0,0 1003.3,-2476.6 1663.1,-3640.5 659.7,-1163.9 865.8,-1488.7 865.8,-1488.7 0,0 378,148.9 412.4,250.4 0,0 -252.3,2246.9 -694.1,2794.6 -249.7,309.5 -542.9,1238.3 -556.7,1563.1 -13.7,324.8 -89.3,967.7 -89.3,967.7 L 23465,7561.1"
         style="fill:#aec3ff;fill-opacity:1;fill-rule:nonzero;stroke:none"
         id="path118" /><path
         d="m 24330.1,11276.1 c 0,0 -672.2,-340.9 -1065.9,-227.2 0,0 54,70.9 152.8,146.1 63.4,48.3 96.3,127 83.7,205.8 -3.9,24.5 -7.3,47.6 -10,69.2 -19.2,133 -16.3,228.4 -16.3,228.4 l 253.4,191.4 244.4,202 c -8.6,-554.6 357.9,-815.7 357.9,-815.7"
         style="fill:#ffb27d;fill-opacity:1;fill-rule:nonzero;stroke:none"
         id="path120" /><path
         d="m 24997.9,7811.7 c -271.5,-164.3 -528.4,-287.8 -829.1,-357.2 -354.7,-84.1 -790.6,-59.3 -936.5,-81.5 -15,-2 -29.2,1.9 -42.5,10.8 -11.5,5.9 -75.8,438.5 -140.3,984.6 -2.9,22 -5.9,44.2 -7.1,66.4 l -0.9,7.3 c -25.1,213.5 -47.1,437.8 -66.2,662.5 -15.5,174.9 -28.3,347.9 -37.2,510.4 -11.1,203.3 -15.8,390 -11.1,543.6 2,70.2 6.1,133.4 12.4,188.2 38.4,318.9 171.8,547.9 315.1,717.6 l 165.5,132.9 c 137.9,-8.7 250.5,18.6 383.3,106.3 145.2,95.5 301.8,198.3 331.4,181.1 222.5,-121.7 403.6,-437.1 533,-853.7 74.2,-239.8 131.1,-511.9 167.5,-800.1 11.8,-89.4 21.7,-181.1 29.3,-272.5 1.5,-16.9 2.8,-33.8 4.1,-50.4 17.5,-249.7 46,-483.8 77.6,-692.8 42.5,-281.9 90.9,-518 125.1,-684.3 17.2,-84.6 30.3,-150 38.1,-196.9 6.9,-40.9 -75,-99.5 -111.5,-122.3"
         style="fill:#f99746;fill-opacity:1;fill-rule:nonzero;stroke:none"
         id="path122" /><path
         d="m 23980.9,11880 c 0,0 -165.3,-316.1 -490.2,-410 -29.3,167.7 -20.7,431.2 -20.7,431.2 l 257.8,-11.4 253.1,-9.8"
         style="fill:#ed985f;fill-opacity:1;fill-rule:nonzero;stroke:none"
         id="path124" /><path
         d="m 23279.6,11824.5 c 0,0 607.3,-248.4 755.8,125.9 148.5,374.4 326.9,594.5 -54.6,768.9 -381.5,174.5 -514,61.3 -594.4,-51.6 -80.5,-112.9 -261,-768.9 -106.8,-843.2"
         style="fill:#ffb27d;fill-opacity:1;fill-rule:nonzero;stroke:none"
         id="path126" /><path
         d="m 24440.7,12662.4 c 7.3,5.3 21.7,7.5 51.5,2.4 0,0 -20.1,20.1 -51.4,28.1 3.3,42.3 -1.8,119.7 -68.2,153.5 0,0 33.2,-28.9 28.2,-73.5 -62.3,102.5 -222.9,203.6 -715.4,276.7 -649.1,96.3 -532.9,-360.2 -461.5,-427.8 71.3,-67.7 309.7,18 460.7,-29.6 150.9,-47.6 129.1,-276.5 174.2,-319 45.2,-42.5 37,16.2 115,31.8 77.9,15.7 57.7,-102.8 19.8,-174.2 -37.9,-71.3 36,-193.9 36,-193.9 0,0 0,0 122.3,83 122.3,83 317.5,508.7 294.8,614.3 -2,9.3 -3.9,18.7 -6,28.2"
         style="fill:#2c3a64;fill-opacity:1;fill-rule:nonzero;stroke:none"
         id="path128" /><path
         d="m 24066.4,10123.1 c 0,0 -547.7,-416.8 -1128.3,-508.1 -11.1,203.3 -15.8,390 -11.1,543.6 l 1139.4,-35.5"
         style="fill:#ed7d2b;fill-opacity:1;fill-rule:nonzero;stroke:none"
         id="path130" /><path
         d="m 20825.1,11561.8 c -5.5,11.4 -1.7,401.1 -194.2,432.3 -125.6,20.3 -451.1,107.2 -448,-67.6 1.2,-68.7 408.6,-492.7 408.6,-492.7 l 233.6,128"
         style="fill:#ffb27d;fill-opacity:1;fill-rule:nonzero;stroke:none"
         id="path132" /><path
         d="m 24181.8,10801.5 c 243,-270.9 81,-707.9 -280.8,-747 -7.4,-0.8 -14.8,-1.5 -22.3,-2.1 -552.2,-44.8 -2123.4,405.1 -2340.8,525.4 -360.9,199.6 -979.7,831.1 -979.7,831.1 0,0 144.4,226.6 296.3,222.2 0,0 828.3,-527.6 1124.9,-590.8 200.1,-42.5 1792.5,243.8 2004.6,-11.5 56,-67.4 125.7,-146.9 197.8,-227.3"
         style="fill:#f99746;fill-opacity:1;fill-rule:nonzero;stroke:none"
         id="path134" /><path
         d="m 26052.3,8025.9 c 0,0 29.5,-65 50.4,-115.5 20.9,-50.6 32.4,-144.9 16.3,-135.7 -16.1,9.2 -73.6,76.4 -91.9,110.6 -18.4,34.3 25.2,140.6 25.2,140.6"
         style="fill:#ffb27d;fill-opacity:1;fill-rule:nonzero;stroke:none"
         id="path136" /><g
         id="g138"><g
           id="g140"
           clip-path="url(#clipPath144)"><path
             d="m 12521.5,6582.4 h 1327 v 2616.7 h -1327 z"
             style="fill:#dce9fa;fill-opacity:1;fill-rule:nonzero;stroke:none"
             id="path146" /></g></g><path
         d="m 13948.1,6124.4 c -814.3,1029.3 -2370.5,2213.2 -2481.7,2564.9 -41.7,131.9 -25,216.4 12.2,270.4 35.5,51.8 93.7,78.9 153.1,78.9 35.9,0 72.2,-9.9 104.2,-30.2 1395.3,-884.4 2212.2,-2884 2212.2,-2884"
         style="fill:#dce9fa;fill-opacity:1;fill-rule:nonzero;stroke:none"
         id="path148" /><path
         d="m 15178.9,2159 c -17.3,34.5 -35.5,67.7 -54.8,99.1 l -0.4,0.6 -0.8,1.4 c -12.9,19.4 -31.3,46.9 -54.2,80.5 l -0.1,0.1 -0.1,0.2 c -55.3,74.1 -93.5,129.3 -118.6,169.6 l -0.2,0.4 c -167.6,233.8 -403.1,535.4 -534.4,584.8 v 0 C 14273.1,2578.4 13204.5,2299 12527.2,2299 c -26.5,0 -52.3,0.4 -77.5,1.3 -669.9,22.7 -418.8,253.2 -120.6,608.9 298.2,355.6 1041.9,401.7 1237.9,554.6 128.9,100.5 28.1,162 -177.1,162 -106.9,0 -242.1,-16.6 -387.9,-53.1 -426,-106.6 -568.4,-574.9 -1254.3,-759.9 -48.3,-13 -97,-19 -145.6,-19.1 -642.8,0 -1294.5,1055.2 -1294.5,1055.2 37.8,-5 77.3,-7.4 118,-7.4 506.2,0 1207.2,365.1 1211.8,523.9 1.3,46.5 -91.3,63.3 -231.1,63.3 -179.7,0 -437.3,-27.6 -674.1,-55.2 -236.7,-27.6 -452.6,-55.2 -548.7,-55.2 -9.2,0 -17.3,0.2 -24.2,0.7 -207.65,16 -624,355.1 -543.69,1188.6 76.56,794.6 1340.89,813.2 1458.49,813.2 5.8,0 8.7,-0.1 8.7,-0.1 0,0 1139.1,-1227.2 1417.4,-1227.2 1.4,0 2.7,0 4,0 271.3,12 -776.4,1251.5 -776.4,1251.5 72.9,19.8 164.8,28.2 268.6,28.2 616.9,0 1656.2,-298.7 1656.2,-298.7 0,0 184.7,-1565.3 435.5,-1565.3 6,0 12,0.9 18,2.8 260,78.3 -245.5,1444.2 -245.5,1444.2 523.4,-64.8 1087,-566.7 1087,-566.7 741.9,-847.4 -384.6,-1756.3 -384.6,-1756.3 0,0 79.4,-567.2 538.1,-1155.4 v 0 c 0,0 99,-106.1 213.5,-295.7 l -135.7,-23.1 m -745.1,1003.9 c -5.9,-21.5 -12,-43.8 -18.5,-67.2 0,0 11.4,23.6 18.5,67.2"
         style="fill:#cde0fb;fill-opacity:1;fill-rule:nonzero;stroke:none"
         id="path150" /><path
         d="m 20809.9,3573.3 c -34.5,0 -74.1,1.8 -119.1,5.6 -491.5,41.3 -1306.1,345.6 -1367.6,751.1 v 0 c -100.1,-24.7 -298.3,-224.8 -441,-381.1 l -0.2,-0.3 c -21.8,-27.2 -54.5,-64.3 -101.3,-113.7 l -0.1,-0.1 -0.1,-0.1 c -19.6,-22.5 -35.4,-41.1 -46.5,-54.1 l -0.7,-0.9 -0.3,-0.4 c -16.9,-21.4 -33,-44 -48.6,-67.7 l -97.3,28.6 c 100.1,128.6 181.6,197.6 181.6,197.6 v 0 c 386,390.1 493.1,797.7 493.1,797.7 0,0 -744.6,761.5 -129.2,1316.6 0,0 455.2,318.1 843.2,320.1 0,0 -487.4,-954.3 -304.2,-1034 6,-2.6 12,-3.9 18.2,-3.9 183.1,0.1 448.3,1106.5 448.3,1106.5 0,0 538.5,88.1 979.6,88.1 181.2,0 346,-14.9 450.2,-56.9 0,0 -872.7,-815.1 -675.5,-847.3 3.9,-0.6 8,-0.9 12.4,-0.9 221.5,0 1132.3,774.8 1132.3,774.8 0,0 1015.2,-105 1001.8,-721 -13.2,-607.2 -337.4,-821.7 -493.3,-821.6 -2.3,0 -4.5,0 -6.7,0.1 -125.2,5.2 -757.3,194 -990,194 -52,0 -84,-9.4 -86,-32.4 -11.2,-124.9 542.6,-492.4 918.6,-492.4 2.8,0 5.6,0.1 8.4,0.1 0,0 -525.7,-662.2 -984,-662.2 -53.9,0 -106.8,9.1 -157.8,29.6 -485.2,194.4 -548.8,548.9 -850.9,663.6 -136.3,51.8 -262.1,76.8 -347.2,76.8 -103.3,0 -146.4,-36.9 -75.1,-107.5 130.1,-128.7 669.5,-226.6 856.7,-512.3 170,-259.4 320.5,-440.1 -21.7,-440.1 m -1494.3,807.4 c 1.3,-32.4 7.6,-50.7 7.6,-50.7 -2.6,17.7 -5.2,34.5 -7.6,50.7"
         style="fill:#cde0fb;fill-opacity:1;fill-rule:nonzero;stroke:none"
         id="path152" /><path
         d="m 13035.7,5774.3 v -779.5 c 0,-149.2 -127.7,-271.3 -283.7,-271.3 h -583.9 c -156,0 -283.7,122.1 -283.7,271.3 v 779.5 c 0,149.3 127.7,271.4 283.7,271.4 h 583.9 c 156,0 283.7,-122.1 283.7,-271.4"
         style="fill:#ed7d2b;fill-opacity:1;fill-rule:nonzero;stroke:none"
         id="path154" /><path
         d="m 13035.7,5774.3 v -434.2 c 0,-149.2 -127.7,-271.4 -283.7,-271.4 h -583.9 c -156,0 -283.7,122.2 -283.7,271.4 v 434.2 c 0,149.3 127.7,271.4 283.7,271.4 h 583.9 c 156,0 283.7,-122.1 283.7,-271.4"
         style="fill:#f99746;fill-opacity:1;fill-rule:nonzero;stroke:none"
         id="path156" /><path
         d="m 19506.2,5384.6 c 0,-398.8 -85.3,-779.7 -239.3,-1126.3 C 18804.8,3218 17724.4,2483.7 16473.3,2483.7 h -867 c -52,0 -103.6,1.2 -155,3.7 -635.4,31 -1220.6,251.3 -1695.2,602.8 -304,224.9 -562.6,504 -759.6,821.3 -268.4,432.5 -422.9,936.3 -422.9,1473.1 0,399 85.2,779.5 239.3,1126.4 461.9,1040.2 1542.4,1774.5 2793.4,1774.5 h 867 c 1137.7,0 2134.3,-607.3 2653,-1499.6 241.8,-416 379.9,-894.1 379.9,-1401.3"
         style="fill:#ed7d2b;fill-opacity:1;fill-rule:nonzero;stroke:none"
         id="path158" /><path
         d="m 16986.6,3715.3 -282.9,-1757 c -37.6,-136.1 69.7,-269.4 216.9,-269.4 h 743.4 c 159.4,0 305.4,85.2 378.4,220.7 l 1155.5,2204.5 -2211.3,-398.8"
         style="fill:#ed7d2b;fill-opacity:1;fill-rule:nonzero;stroke:none"
         id="path160" /><path
         d="m 15303.8,1688.9 h -743.4 c -159.4,0 -305.4,85.1 -378.4,220.7 l -714.6,1206.8 -470.9,795.1 2297.4,-226.4 83,-631.6 74.4,-566.1 69.5,-529.1 c 37.5,-136.2 -69.8,-269.4 -217,-269.4"
         style="fill:#ed7d2b;fill-opacity:1;fill-rule:nonzero;stroke:none"
         id="path162" /><path
         d="m 19049.6,5720 c -612.1,-1683.9 -1191.4,-2584.2 -3537.8,-2662.5 -45.5,-1.6 -90.5,-2.9 -134.9,-4 -669.8,-17.6 -1214.1,4.8 -1620.8,36.7 -105.5,8.2 -201.8,17.2 -288.7,26.2 l -470.9,795.1 c -268.4,432.5 -422.9,936.3 -422.9,1473.1 0,399 85.2,779.5 239.3,1126.4 461.9,1040.2 1542.4,1774.5 2793.4,1774.5 h 867 c 1137.7,0 2134.3,-607.3 2653,-1499.6 71.9,-334.6 15.3,-812.8 -76.7,-1065.9"
         style="fill:#f99746;fill-opacity:1;fill-rule:nonzero;stroke:none"
         id="path164" /><path
         d="m 15248.8,7558.7 h -1192.9 c -120.3,0 -217.8,69.9 -217.8,156 v 1557.9 c 0,26.5 8.8,50.8 23.9,71.7 58.3,81 211.6,114.4 325.7,52.6 452.9,-245.6 1194.9,-779.2 1278.4,-1671.5 8.4,-90.2 -91.3,-166.7 -217.3,-166.7"
         style="fill:#f99746;fill-opacity:1;fill-rule:nonzero;stroke:none"
         id="path166" /><path
         d="m 14104.4,7558.7 h -48.5 c -120.3,0 -217.8,69.9 -217.8,156 v 1557.9 c 0,26.5 8.8,50.8 23.9,71.7 5.1,-4.2 10,-8.7 14.7,-13.7 259.1,-275.9 632.6,-818 527.3,-1577.3 -15.3,-110.4 -144.7,-194.6 -299.6,-194.6"
         style="fill:#ed7d2b;fill-opacity:1;fill-rule:nonzero;stroke:none"
         id="path168" /><path
         d="m 13475.7,6517.3 c 0,93.9 79.6,170 177.7,170 98.2,0 177.8,-76.1 177.8,-170 0,-93.9 -79.6,-170 -177.8,-170 -98.1,0 -177.7,76.1 -177.7,170"
         style="fill:#2b478b;fill-opacity:1;fill-rule:nonzero;stroke:none"
         id="path170" /><path
         d="m 17057.4,1967 v -181.6 c 0,-14.5 5.2,-27.9 14.3,-39.1 9.4,-11.8 23.1,-21.1 39.1,-26.2 4.9,-1.7 10,-2.9 15.2,-3.6 4.8,-0.8 9.7,-1.2 14.7,-1.2 h 3446.1 c 44.5,0 81.1,29.6 83.3,66.5 0.1,1.1 0.1,2.4 0.1,3.6 V 1967 c 0,1.2 0,2.4 -0.1,3.6 -2.2,36.9 -38.8,66.5 -83.3,66.5 h -3446.1 c -5,0 -9.9,-0.4 -14.7,-1.2 -5.2,-0.7 -10.3,-1.9 -15.2,-3.6 -16,-5.2 -29.7,-14.4 -39.1,-26.2 -9.1,-11.2 -14.3,-24.6 -14.3,-39.1"
         style="fill:#ffc76c;fill-opacity:1;fill-rule:nonzero;stroke:none"
         id="path172" /><path
         d="m 18749.6,1715.3 h 1846.2 c 39.6,0 72.3,29.6 74.3,66.5 0.1,1.1 0.1,2.4 0.1,3.6 V 1967 c 0,1.2 0,2.4 -0.1,3.6 -2,36.9 -34.7,66.5 -74.3,66.5 h -1619.5 c -25.9,-94.8 -86.1,-225.7 -226.7,-321.8"
         style="fill:#ffae39;fill-opacity:1;fill-rule:nonzero;stroke:none"
         id="path174" /><path
         d="m 17476.7,1715.3 h 39.2 V 2037 h -39.2 v -321.7"
         style="fill:#ffa412;fill-opacity:1;fill-rule:nonzero;stroke:none"
         id="path176" /><path
         d="m 17609.3,1715.3 h 39.1 V 2037 h -39.1 v -321.7"
         style="fill:#ffa412;fill-opacity:1;fill-rule:nonzero;stroke:none"
         id="path178" /><path
         d="m 17768.3,1715.3 h 39.1 V 2037 h -39.1 v -321.7"
         style="fill:#ffa412;fill-opacity:1;fill-rule:nonzero;stroke:none"
         id="path180" /><path
         d="m 18012,1715.3 h 39.1 V 2037 h -39.1 v -321.7"
         style="fill:#ffa412;fill-opacity:1;fill-rule:nonzero;stroke:none"
         id="path182" /><path
         d="m 18269.6,1715.3 h 39.2 V 2037 h -39.2 v -321.7"
         style="fill:#ffa412;fill-opacity:1;fill-rule:nonzero;stroke:none"
         id="path184" /><path
         d="m 18664.7,1715.3 h 39.2 V 2037 h -39.2 v -321.7"
         style="fill:#ffa412;fill-opacity:1;fill-rule:nonzero;stroke:none"
         id="path186" /><path
         d="m 19034.6,1715.3 h 39.2 V 2037 h -39.2 v -321.7"
         style="fill:#ffa412;fill-opacity:1;fill-rule:nonzero;stroke:none"
         id="path188" /><path
         d="m 19364.9,1715.3 h 39.2 V 2037 h -39.2 v -321.7"
         style="fill:#ffa412;fill-opacity:1;fill-rule:nonzero;stroke:none"
         id="path190" /><path
         d="m 17350.5,1715.3 h 39.2 V 2037 h -39.2 v -321.7"
         style="fill:#ffa412;fill-opacity:1;fill-rule:nonzero;stroke:none"
         id="path192" /><path
         d="m 17267.1,1715.3 h 39.2 V 2037 h -39.2 v -321.7"
         style="fill:#ffa412;fill-opacity:1;fill-rule:nonzero;stroke:none"
         id="path194" /><path
         d="m 17186.6,1715.3 h 39.2 V 2037 h -39.2 v -321.7"
         style="fill:#ffa412;fill-opacity:1;fill-rule:nonzero;stroke:none"
         id="path196" /><path
         d="m 17126,2035.9 v -319.4 c 4.8,-0.8 9.7,-1.2 14.7,-1.2 h 24.5 v 321.8 h -24.5 c -5,0 -9.9,-0.4 -14.7,-1.2"
         style="fill:#ffa412;fill-opacity:1;fill-rule:nonzero;stroke:none"
         id="path198" /><path
         d="m 17071.7,2006.1 v -259.8 c 9.4,-11.8 23.1,-21.1 39.1,-26.2 v 312.2 c -16,-5.2 -29.7,-14.4 -39.1,-26.2"
         style="fill:#ffa412;fill-opacity:1;fill-rule:nonzero;stroke:none"
         id="path200" /><path
         d="m 17425.8,2288.7 v -181.6 c 0,-14.5 5.3,-27.9 14.3,-39.1 9.5,-11.8 23.1,-21 39.1,-26.2 4.9,-1.7 10,-2.9 15.3,-3.6 4.8,-0.8 9.7,-1.1 14.7,-1.1 h 3446.1 c 44.4,0 81,29.5 83.3,66.4 0,1.2 0.1,2.4 0.1,3.6 v 181.6 c 0,1.3 -0.1,2.5 -0.1,3.6 -2.3,36.9 -38.9,66.5 -83.3,66.5 h -3446.1 c -2.2,0 -4.4,-0.1 -6.6,-0.3 -0.9,0 -1.9,-0.1 -2.8,-0.2 -1,-0.1 -2.1,-0.2 -3.1,-0.4 l -2.2,-0.3 c -5.3,-0.7 -10.4,-1.9 -15.3,-3.6 l -2.1,-0.7 -2.2,-0.8 c -1.3,-0.5 -2.8,-1.1 -4.2,-1.7 l -2.4,-1.1 -2.1,-1 c -1.3,-0.7 -2.6,-1.4 -3.9,-2.1 -1.5,-0.9 -2.9,-1.8 -4.3,-2.7 -1.1,-0.7 -2.1,-1.4 -3.2,-2.2 l -0.2,-0.2 -2.1,-1.5 c -2.1,-1.7 -4.2,-3.4 -6,-5.3 l -1.7,-1.6 -1.6,-1.7 c -1.1,-1.2 -2.1,-2.4 -3.1,-3.6 -9,-11.1 -14.3,-24.6 -14.3,-39.1"
         style="fill:#ffc76c;fill-opacity:1;fill-rule:nonzero;stroke:none"
         id="path202" /><path
         d="m 19118,2037.1 h 1846.2 c 39.7,0 72.3,29.5 74.4,66.4 0,1.2 0.1,2.4 0.1,3.6 v 181.6 c 0,1.3 -0.1,2.5 -0.1,3.6 -2.1,36.9 -34.7,66.5 -74.4,66.5 h -1619.4 c -0.7,-2.7 -1.5,-5.3 -2.3,-8 -27,-93.9 -87.7,-220.4 -224.5,-313.7"
         style="fill:#ffae39;fill-opacity:1;fill-rule:nonzero;stroke:none"
         id="path204" /><path
         d="m 17845.1,2037.1 h 39.2 v 321.7 h -39.2 v -321.7"
         style="fill:#ffa412;fill-opacity:1;fill-rule:nonzero;stroke:none"
         id="path206" /><path
         d="m 17977.7,2037.1 h 39.2 v 321.7 h -39.2 v -321.7"
         style="fill:#ffa412;fill-opacity:1;fill-rule:nonzero;stroke:none"
         id="path208" /><path
         d="m 18136.7,2037.1 h 39.2 v 321.7 h -39.2 v -321.7"
         style="fill:#ffa412;fill-opacity:1;fill-rule:nonzero;stroke:none"
         id="path210" /><path
         d="m 18380.4,2037.1 h 39.2 v 321.7 h -39.2 v -321.7"
         style="fill:#ffa412;fill-opacity:1;fill-rule:nonzero;stroke:none"
         id="path212" /><path
         d="m 18638.1,2037.1 h 39.2 v 321.7 h -39.2 v -321.7"
         style="fill:#ffa412;fill-opacity:1;fill-rule:nonzero;stroke:none"
         id="path214" /><path
         d="m 19033.2,2037.1 h 39.1 v 321.7 h -39.1 v -321.7"
         style="fill:#ffa412;fill-opacity:1;fill-rule:nonzero;stroke:none"
         id="path216" /><path
         d="m 19403.1,2037.1 h 39.1 v 321.7 h -39.1 v -321.7"
         style="fill:#ffa412;fill-opacity:1;fill-rule:nonzero;stroke:none"
         id="path218" /><path
         d="m 19733.3,2037.1 h 39.2 v 321.7 h -39.2 v -321.7"
         style="fill:#ffa412;fill-opacity:1;fill-rule:nonzero;stroke:none"
         id="path220" /><path
         d="m 17718.9,2037.1 h 39.2 v 321.7 h -39.2 v -321.7"
         style="fill:#ffa412;fill-opacity:1;fill-rule:nonzero;stroke:none"
         id="path222" /><path
         d="m 17635.6,2037.1 h 39.1 v 321.7 h -39.1 v -321.7"
         style="fill:#ffa412;fill-opacity:1;fill-rule:nonzero;stroke:none"
         id="path224" /><path
         d="m 17555.1,2037.1 h 39.1 v 321.7 h -39.1 v -321.7"
         style="fill:#ffa412;fill-opacity:1;fill-rule:nonzero;stroke:none"
         id="path226" /><path
         d="m 17494.5,2357.7 v -319.5 c 4.8,-0.7 9.7,-1.1 14.7,-1.1 h 24.5 v 321.7 h -24.5 c -5,0 -9.9,-0.4 -14.7,-1.1"
         style="fill:#ffa412;fill-opacity:1;fill-rule:nonzero;stroke:none"
         id="path228" /><path
         d="M 17440.1,2327.9 V 2068 c 9.5,-11.8 23.1,-21 39.1,-26.2 v 312.3 c -16,-5.2 -29.6,-14.5 -39.1,-26.2"
         style="fill:#ffa412;fill-opacity:1;fill-rule:nonzero;stroke:none"
         id="path230" /><path
         d="m 17247.8,2602.5 v -181.7 c 0,-14.4 5.2,-27.9 14.3,-39 9.4,-11.8 23.1,-21.1 39.1,-26.2 4.9,-1.7 10,-2.9 15.2,-3.6 4.8,-0.8 9.7,-1.2 14.7,-1.2 h 3446.1 c 13.9,0 27,2.9 38.5,8 24.4,10.7 41.8,31.3 44.5,55.3 0.2,1.1 0.3,2.1 0.3,3.1 0.1,1.2 0.1,2.4 0.1,3.6 v 181.7 c 0,1.2 0,2.4 -0.1,3.6 -2.2,36.9 -38.8,66.4 -83.3,66.4 h -3446.1 c -5,0 -9.9,-0.3 -14.7,-1.1 -5.2,-0.8 -10.3,-1.9 -15.2,-3.6 -16,-5.2 -29.7,-14.4 -39.1,-26.2 -9.1,-11.2 -14.3,-24.6 -14.3,-39.1"
         style="fill:#ffc76c;fill-opacity:1;fill-rule:nonzero;stroke:none"
         id="path232" /><path
         d="m 18940,2350.8 h 1846.2 c 12.3,0 24,2.9 34.3,8 21.8,10.7 37.3,31.3 39.7,55.3 0.2,1.1 0.3,2.1 0.3,3.1 0.1,1.2 0.1,2.4 0.1,3.6 v 181.7 c 0,1.2 0,2.4 -0.1,3.6 -2,36.9 -34.7,66.4 -74.3,66.4 h -1619.5 c -25.2,-92.1 -82.9,-218.5 -215.4,-313.7 -3.7,-2.7 -7.5,-5.3 -11.3,-8"
         style="fill:#ffae39;fill-opacity:1;fill-rule:nonzero;stroke:none"
         id="path234" /><path
         d="m 17667.1,2350.8 h 39.2 v 321.7 h -39.2 v -321.7"
         style="fill:#ffa412;fill-opacity:1;fill-rule:nonzero;stroke:none"
         id="path236" /><path
         d="m 17799.7,2350.8 h 39.1 v 321.7 h -39.1 v -321.7"
         style="fill:#ffa412;fill-opacity:1;fill-rule:nonzero;stroke:none"
         id="path238" /><path
         d="m 17958.7,2350.8 h 39.1 v 321.7 h -39.1 v -321.7"
         style="fill:#ffa412;fill-opacity:1;fill-rule:nonzero;stroke:none"
         id="path240" /><path
         d="m 18202.3,2350.8 h 39.2 v 321.7 h -39.2 v -321.7"
         style="fill:#ffa412;fill-opacity:1;fill-rule:nonzero;stroke:none"
         id="path242" /><path
         d="m 18460,2350.8 h 39.2 v 321.7 h -39.2 v -321.7"
         style="fill:#ffa412;fill-opacity:1;fill-rule:nonzero;stroke:none"
         id="path244" /><path
         d="m 18855.1,2350.8 h 39.2 v 321.7 h -39.2 v -321.7"
         style="fill:#ffa412;fill-opacity:1;fill-rule:nonzero;stroke:none"
         id="path246" /><path
         d="m 19225,2350.8 h 39.2 v 321.7 h -39.2 v -321.7"
         style="fill:#ffa412;fill-opacity:1;fill-rule:nonzero;stroke:none"
         id="path248" /><path
         d="m 19555.3,2350.8 h 39.2 v 321.7 h -39.2 v -321.7"
         style="fill:#ffa412;fill-opacity:1;fill-rule:nonzero;stroke:none"
         id="path250" /><path
         d="m 17540.9,2350.8 h 39.2 v 321.7 h -39.2 v -321.7"
         style="fill:#ffa412;fill-opacity:1;fill-rule:nonzero;stroke:none"
         id="path252" /><path
         d="m 17457.5,2350.8 h 39.2 v 321.7 h -39.2 v -321.7"
         style="fill:#ffa412;fill-opacity:1;fill-rule:nonzero;stroke:none"
         id="path254" /><path
         d="m 17377,2350.8 h 39.2 v 321.7 h -39.2 v -321.7"
         style="fill:#ffa412;fill-opacity:1;fill-rule:nonzero;stroke:none"
         id="path256" /><path
         d="M 17316.4,2671.4 V 2352 c 4.8,-0.8 9.7,-1.2 14.7,-1.2 h 24.5 v 321.7 h -24.5 c -5,0 -9.9,-0.3 -14.7,-1.1"
         style="fill:#ffa412;fill-opacity:1;fill-rule:nonzero;stroke:none"
         id="path258" /><path
         d="m 17262.1,2641.6 v -259.8 c 9.4,-11.8 23.1,-21.1 39.1,-26.2 v 312.2 c -16,-5.2 -29.7,-14.4 -39.1,-26.2"
         style="fill:#ffa412;fill-opacity:1;fill-rule:nonzero;stroke:none"
         id="path260" /><path
         d="m 17165.2,2924.2 v -181.6 c 0,-14.5 5.3,-27.9 14.3,-39.1 9.5,-11.8 23.1,-21 39.1,-26.2 4.9,-1.7 10,-2.9 15.3,-3.6 4.8,-0.8 9.7,-1.2 14.7,-1.2 h 3446.1 c 44.4,0 81,29.6 83.3,66.5 0,1.2 0.1,2.4 0.1,3.6 v 181.6 c 0,1.2 -0.1,2.4 -0.1,3.6 -2.1,34.1 -33.6,62 -73.4,66 -3.3,0.3 -6.5,0.5 -9.9,0.5 h -3446.1 c -5,0 -9.9,-0.4 -14.7,-1.2 -5.3,-0.7 -10.4,-1.9 -15.3,-3.6 -16,-5.1 -29.6,-14.4 -39.1,-26.2 -9,-11.2 -14.3,-24.6 -14.3,-39.1"
         style="fill:#ffc76c;fill-opacity:1;fill-rule:nonzero;stroke:none"
         id="path262" /><path
         d="m 18857.4,2672.5 h 1846.2 c 39.7,0 72.3,29.6 74.4,66.5 0,1.2 0.1,2.4 0.1,3.6 v 181.6 c 0,1.2 -0.1,2.4 -0.1,3.6 -1.9,34.1 -30,62 -65.6,66 -2.8,0.3 -5.8,0.5 -8.8,0.5 h -1619.4 l -0.2,-0.5 c -25.9,-94.7 -86.2,-225.4 -226.6,-321.3"
         style="fill:#ffae39;fill-opacity:1;fill-rule:nonzero;stroke:none"
         id="path264" /><path
         d="m 17584.5,2672.5 h 39.2 v 321.8 h -39.2 v -321.8"
         style="fill:#ffa412;fill-opacity:1;fill-rule:nonzero;stroke:none"
         id="path266" /><path
         d="m 17717.1,2672.5 h 39.2 v 321.8 h -39.2 v -321.8"
         style="fill:#ffa412;fill-opacity:1;fill-rule:nonzero;stroke:none"
         id="path268" /><path
         d="m 17876.1,2672.5 h 39.2 v 321.8 h -39.2 v -321.8"
         style="fill:#ffa412;fill-opacity:1;fill-rule:nonzero;stroke:none"
         id="path270" /><path
         d="m 18119.8,2672.5 h 39.2 v 321.8 h -39.2 v -321.8"
         style="fill:#ffa412;fill-opacity:1;fill-rule:nonzero;stroke:none"
         id="path272" /><path
         d="m 18377.5,2672.5 h 39.2 v 321.8 h -39.2 v -321.8"
         style="fill:#ffa412;fill-opacity:1;fill-rule:nonzero;stroke:none"
         id="path274" /><path
         d="m 18772.6,2672.5 h 39.1 v 321.8 h -39.1 v -321.8"
         style="fill:#ffa412;fill-opacity:1;fill-rule:nonzero;stroke:none"
         id="path276" /><path
         d="m 19142.5,2672.5 h 39.1 v 321.8 h -39.1 v -321.8"
         style="fill:#ffa412;fill-opacity:1;fill-rule:nonzero;stroke:none"
         id="path278" /><path
         d="m 19472.7,2672.5 h 39.2 v 321.8 h -39.2 v -321.8"
         style="fill:#ffa412;fill-opacity:1;fill-rule:nonzero;stroke:none"
         id="path280" /><path
         d="m 17458.3,2672.5 h 39.2 v 321.8 h -39.2 v -321.8"
         style="fill:#ffa412;fill-opacity:1;fill-rule:nonzero;stroke:none"
         id="path282" /><path
         d="m 17375,2672.5 h 39.1 v 321.8 h -39.1 v -321.8"
         style="fill:#ffa412;fill-opacity:1;fill-rule:nonzero;stroke:none"
         id="path284" /><path
         d="m 17294.5,2672.5 h 39.1 v 321.8 h -39.1 v -321.8"
         style="fill:#ffa412;fill-opacity:1;fill-rule:nonzero;stroke:none"
         id="path286" /><path
         d="m 17233.9,2993.2 v -319.5 c 4.8,-0.8 9.7,-1.1 14.7,-1.1 h 24.5 v 321.7 h -24.5 c -5,0 -9.9,-0.4 -14.7,-1.1"
         style="fill:#ffa412;fill-opacity:1;fill-rule:nonzero;stroke:none"
         id="path288" /><path
         d="m 17179.5,2963.3 v -259.8 c 9.5,-11.8 23.1,-21 39.1,-26.2 v 312.3 c -16,-5.2 -29.6,-14.5 -39.1,-26.3"
         style="fill:#ffa412;fill-opacity:1;fill-rule:nonzero;stroke:none"
         id="path290" /><path
         d="m 17418.6,3245.4 v -181.6 c 0,-14.5 5.2,-27.9 14.3,-39.1 9.5,-11.8 23.1,-21 39.1,-26.2 4.9,-1.6 10,-2.8 15.2,-3.6 1.7,-0.3 3.3,-0.5 4.9,-0.6 0.9,-0.1 1.8,-0.2 2.7,-0.3 0.9,-0.1 1.8,-0.1 2.7,-0.1 1.5,-0.1 3,-0.1 4.5,-0.1 h 3446 c 44.5,0 81.1,29.5 83.3,66.4 0.1,1.2 0.1,2.4 0.1,3.6 v 181.6 c 0,1.3 0,2.5 -0.1,3.7 0,1 -0.1,1.9 -0.2,2.9 -3.3,29.6 -28.9,54.1 -62.5,61.3 l -2.5,0.5 c -5.8,1.1 -11.9,1.7 -18.1,1.7 h -3446 c -2.6,0 -5.1,-0.1 -7.5,-0.3 -1.1,-0.1 -2.2,-0.2 -3.3,-0.3 h -0.1 c -1.3,-0.2 -2.6,-0.4 -3.9,-0.6 -5.2,-0.7 -10.3,-1.9 -15.2,-3.5 -16,-5.2 -29.6,-14.5 -39.1,-26.3 -9.1,-11.1 -14.3,-24.6 -14.3,-39.1"
         style="fill:#ffc76c;fill-opacity:1;fill-rule:nonzero;stroke:none"
         id="path292" /><path
         d="M 19110.8,2993.8 H 20957 c 39.6,0 72.3,29.5 74.3,66.4 0.1,1.2 0.1,2.4 0.1,3.6 v 181.6 c 0,1.3 0,2.5 -0.1,3.7 0,1 -0.1,1.9 -0.2,2.9 -3,30.3 -26.8,55.1 -57.7,61.7 -1.1,0.3 -2.2,0.5 -3.2,0.6 -4.3,0.8 -8.7,1.2 -13.2,1.2 h -1619.5 l -0.6,-2.3 c -26.2,-94.4 -86.5,-223.7 -225.4,-318.9 l -0.7,-0.5"
         style="fill:#ffae39;fill-opacity:1;fill-rule:nonzero;stroke:none"
         id="path294" /><path
         d="m 17837.9,2993.8 h 39.2 v 321.7 h -39.2 v -321.7"
         style="fill:#ffa412;fill-opacity:1;fill-rule:nonzero;stroke:none"
         id="path296" /><path
         d="m 17970.5,2993.8 h 39.1 v 321.7 h -39.1 v -321.7"
         style="fill:#ffa412;fill-opacity:1;fill-rule:nonzero;stroke:none"
         id="path298" /><path
         d="m 18129.5,2993.8 h 39.1 v 321.7 h -39.1 v -321.7"
         style="fill:#ffa412;fill-opacity:1;fill-rule:nonzero;stroke:none"
         id="path300" /><path
         d="m 18373.2,2993.8 h 39.1 v 321.7 h -39.1 v -321.7"
         style="fill:#ffa412;fill-opacity:1;fill-rule:nonzero;stroke:none"
         id="path302" /><path
         d="m 18630.9,2993.8 h 39.1 v 321.7 h -39.1 v -321.7"
         style="fill:#ffa412;fill-opacity:1;fill-rule:nonzero;stroke:none"
         id="path304" /><path
         d="m 19025.9,2993.8 h 39.2 v 321.7 h -39.2 v -321.7"
         style="fill:#ffa412;fill-opacity:1;fill-rule:nonzero;stroke:none"
         id="path306" /><path
         d="m 19395.8,2993.8 h 39.2 v 321.7 h -39.2 v -321.7"
         style="fill:#ffa412;fill-opacity:1;fill-rule:nonzero;stroke:none"
         id="path308" /><path
         d="m 19726.1,2993.8 h 39.2 v 321.7 h -39.2 v -321.7"
         style="fill:#ffa412;fill-opacity:1;fill-rule:nonzero;stroke:none"
         id="path310" /><path
         d="m 17711.7,2993.8 h 39.2 v 321.7 h -39.2 v -321.7"
         style="fill:#ffa412;fill-opacity:1;fill-rule:nonzero;stroke:none"
         id="path312" /><path
         d="m 17628.3,2993.8 h 39.2 v 321.7 h -39.2 v -321.7"
         style="fill:#ffa412;fill-opacity:1;fill-rule:nonzero;stroke:none"
         id="path314" /><path
         d="m 17547.8,2993.8 h 39.2 v 321.7 h -39.2 v -321.7"
         style="fill:#ffa412;fill-opacity:1;fill-rule:nonzero;stroke:none"
         id="path316" /><path
         d="m 17487.2,3314.4 v -319.5 c 4.8,-0.7 9.7,-1.1 14.8,-1.1 h 24.4 v 321.7 h -24.4 c -5.1,0 -10,-0.4 -14.8,-1.1"
         style="fill:#ffa412;fill-opacity:1;fill-rule:nonzero;stroke:none"
         id="path318" /><path
         d="m 17432.9,3284.6 v -259.9 c 9.5,-11.8 23.1,-21 39.1,-26.2 v 312.3 c -16,-5.2 -29.6,-14.5 -39.1,-26.2"
         style="fill:#ffa412;fill-opacity:1;fill-rule:nonzero;stroke:none"
         id="path320" /><path
         d="m 17425.8,3564.9 v -181.7 c 0,-14.5 5.3,-27.9 14.3,-39.1 9.5,-11.8 23.1,-21 39.1,-26.2 3.9,-1.3 7.9,-2.3 11.9,-3 h 0.1 c 1.1,-0.2 2.2,-0.4 3.3,-0.6 4.8,-0.7 9.7,-1.1 14.7,-1.1 h 3446.1 c 3.6,0 7.3,0.2 10.8,0.6 1.4,0.1 2.7,0.3 4.1,0.5 37.4,5.7 66.4,32.7 68.4,65.3 0,1.2 0.1,2.4 0.1,3.6 v 181.7 c 0,1.2 -0.1,2.4 -0.1,3.6 -2.3,36.8 -38.9,66.4 -83.3,66.4 h -3446.1 c -2.2,0 -4.4,-0.1 -6.6,-0.2 -0.9,-0.1 -1.9,-0.2 -2.8,-0.3 -1,0 -2.1,-0.2 -3.1,-0.3 l -2.2,-0.3 c -5.3,-0.8 -10.4,-2 -15.3,-3.6 l -2.1,-0.8 -2.2,-0.7 c -1.4,-0.6 -2.8,-1.2 -4.2,-1.7 -1.5,-0.7 -3,-1.4 -4.5,-2.2 -1.3,-0.7 -2.6,-1.4 -3.9,-2.1 -1.5,-0.8 -2.9,-1.7 -4.3,-2.7 -1.1,-0.7 -2.1,-1.4 -3.2,-2.2 l -0.2,-0.1 -2.1,-1.6 c -2.1,-1.6 -4.2,-3.4 -6,-5.2 l -1.7,-1.7 -1.6,-1.7 c -1.1,-1.1 -2.1,-2.3 -3.1,-3.5 -9,-11.2 -14.3,-24.6 -14.3,-39.1"
         style="fill:#ffc76c;fill-opacity:1;fill-rule:nonzero;stroke:none"
         id="path322" /><path
         d="m 19118,3313.2 h 1846.2 c 1.5,0 3,0 4.4,0.1 1.6,0.1 3.2,0.2 4.8,0.4 35.4,4.1 63.3,31.9 65.2,65.9 0,1.2 0.1,2.4 0.1,3.6 v 181.7 c 0,1.2 -0.1,2.4 -0.1,3.6 -2.1,36.8 -34.7,66.4 -74.4,66.4 h -1619.4 c -0.7,-2.6 -1.5,-5.3 -2.3,-7.9 -26.8,-93.2 -86.8,-218.4 -221.2,-311.5 -1.1,-0.8 -2.2,-1.5 -3.3,-2.3"
         style="fill:#ffae39;fill-opacity:1;fill-rule:nonzero;stroke:none"
         id="path324" /><path
         d="m 17845.1,3313.2 h 39.2 v 321.7 h -39.2 v -321.7"
         style="fill:#ffa412;fill-opacity:1;fill-rule:nonzero;stroke:none"
         id="path326" /><path
         d="m 17977.7,3313.2 h 39.2 v 321.7 h -39.2 v -321.7"
         style="fill:#ffa412;fill-opacity:1;fill-rule:nonzero;stroke:none"
         id="path328" /><path
         d="m 18136.7,3313.2 h 39.2 v 321.7 h -39.2 v -321.7"
         style="fill:#ffa412;fill-opacity:1;fill-rule:nonzero;stroke:none"
         id="path330" /><path
         d="m 18380.4,3313.2 h 39.2 v 321.7 h -39.2 v -321.7"
         style="fill:#ffa412;fill-opacity:1;fill-rule:nonzero;stroke:none"
         id="path332" /><path
         d="m 18638.1,3313.2 h 39.2 v 321.7 h -39.2 v -321.7"
         style="fill:#ffa412;fill-opacity:1;fill-rule:nonzero;stroke:none"
         id="path334" /><path
         d="m 19033.2,3313.2 h 39.1 v 321.7 h -39.1 v -321.7"
         style="fill:#ffa412;fill-opacity:1;fill-rule:nonzero;stroke:none"
         id="path336" /><path
         d="m 19403.1,3313.2 h 39.1 v 321.7 h -39.1 v -321.7"
         style="fill:#ffa412;fill-opacity:1;fill-rule:nonzero;stroke:none"
         id="path338" /><path
         d="m 19733.3,3313.2 h 39.2 v 321.7 h -39.2 v -321.7"
         style="fill:#ffa412;fill-opacity:1;fill-rule:nonzero;stroke:none"
         id="path340" /><path
         d="m 17718.9,3313.2 h 39.2 v 321.7 h -39.2 v -321.7"
         style="fill:#ffa412;fill-opacity:1;fill-rule:nonzero;stroke:none"
         id="path342" /><path
         d="m 17635.6,3313.2 h 39.1 v 321.7 h -39.1 v -321.7"
         style="fill:#ffa412;fill-opacity:1;fill-rule:nonzero;stroke:none"
         id="path344" /><path
         d="m 17555.1,3313.2 h 39.1 v 321.7 h -39.1 v -321.7"
         style="fill:#ffa412;fill-opacity:1;fill-rule:nonzero;stroke:none"
         id="path346" /><path
         d="m 17494.5,3633.8 v -319.5 c 4.8,-0.7 9.7,-1.1 14.7,-1.1 h 24.5 v 321.7 h -24.5 c -5,0 -9.9,-0.4 -14.7,-1.1"
         style="fill:#ffa412;fill-opacity:1;fill-rule:nonzero;stroke:none"
         id="path348" /><path
         d="m 17440.1,3604 v -259.9 c 9.5,-11.8 23.1,-21 39.1,-26.2 v 312.3 c -16,-5.2 -29.6,-14.5 -39.1,-26.2"
         style="fill:#ffa412;fill-opacity:1;fill-rule:nonzero;stroke:none"
         id="path350" /><path
         d="M 17247.8,3878.7 V 3697 c 0,-14.5 5.2,-27.9 14.3,-39.1 9.4,-11.8 23.1,-21 39.1,-26.2 4.9,-1.6 10,-2.8 15.2,-3.6 4.8,-0.7 9.7,-1.1 14.7,-1.1 h 3446.1 c 13.9,0 27,2.8 38.5,7.9 24.4,10.7 41.8,31.3 44.5,55.4 0.2,1 0.3,2 0.3,3.1 0.1,1.2 0.1,2.4 0.1,3.6 v 181.7 c 0,1.2 0,2.4 -0.1,3.6 -2.2,36.8 -38.8,66.4 -83.3,66.4 h -3446.1 c -5,0 -9.9,-0.4 -14.7,-1.1 -5.2,-0.8 -10.3,-2 -15.2,-3.6 -16,-5.2 -29.7,-14.5 -39.1,-26.2 -9.1,-11.2 -14.3,-24.7 -14.3,-39.1"
         style="fill:#ffc76c;fill-opacity:1;fill-rule:nonzero;stroke:none"
         id="path352" /><path
         d="m 18940,3627 h 1846.2 c 12.3,0 24,2.8 34.3,7.9 21.8,10.7 37.3,31.3 39.7,55.4 0.2,1 0.3,2 0.3,3.1 0.1,1.2 0.1,2.4 0.1,3.6 v 181.7 c 0,1.2 0,2.4 -0.1,3.6 -2,36.8 -34.7,66.4 -74.3,66.4 h -1619.5 c -25.2,-92.1 -82.9,-218.6 -215.4,-313.8 -3.7,-2.7 -7.5,-5.3 -11.3,-7.9"
         style="fill:#ffae39;fill-opacity:1;fill-rule:nonzero;stroke:none"
         id="path354" /><path
         d="m 17667.1,3627 h 39.2 v 321.7 h -39.2 V 3627"
         style="fill:#ffa412;fill-opacity:1;fill-rule:nonzero;stroke:none"
         id="path356" /><path
         d="m 17799.7,3627 h 39.1 v 321.7 h -39.1 V 3627"
         style="fill:#ffa412;fill-opacity:1;fill-rule:nonzero;stroke:none"
         id="path358" /><path
         d="m 17958.7,3627 h 39.1 v 321.7 h -39.1 V 3627"
         style="fill:#ffa412;fill-opacity:1;fill-rule:nonzero;stroke:none"
         id="path360" /><path
         d="m 18202.3,3627 h 39.2 v 321.7 h -39.2 V 3627"
         style="fill:#ffa412;fill-opacity:1;fill-rule:nonzero;stroke:none"
         id="path362" /><path
         d="m 18460,3627 h 39.2 v 321.7 H 18460 V 3627"
         style="fill:#ffa412;fill-opacity:1;fill-rule:nonzero;stroke:none"
         id="path364" /><path
         d="m 18855.1,3627 h 39.2 v 321.7 h -39.2 V 3627"
         style="fill:#ffa412;fill-opacity:1;fill-rule:nonzero;stroke:none"
         id="path366" /><path
         d="m 19225,3627 h 39.2 v 321.7 H 19225 V 3627"
         style="fill:#ffa412;fill-opacity:1;fill-rule:nonzero;stroke:none"
         id="path368" /><path
         d="m 19555.3,3627 h 39.2 v 321.7 h -39.2 V 3627"
         style="fill:#ffa412;fill-opacity:1;fill-rule:nonzero;stroke:none"
         id="path370" /><path
         d="m 17540.9,3627 h 39.2 v 321.7 h -39.2 V 3627"
         style="fill:#ffa412;fill-opacity:1;fill-rule:nonzero;stroke:none"
         id="path372" /><path
         d="m 17457.5,3627 h 39.2 v 321.7 h -39.2 V 3627"
         style="fill:#ffa412;fill-opacity:1;fill-rule:nonzero;stroke:none"
         id="path374" /><path
         d="m 17377,3627 h 39.2 v 321.7 H 17377 V 3627"
         style="fill:#ffa412;fill-opacity:1;fill-rule:nonzero;stroke:none"
         id="path376" /><path
         d="m 17316.4,3947.5 v -319.4 c 4.8,-0.8 9.7,-1.1 14.7,-1.1 h 24.5 v 321.7 h -24.5 c -5,0 -9.9,-0.4 -14.7,-1.2"
         style="fill:#ffa412;fill-opacity:1;fill-rule:nonzero;stroke:none"
         id="path378" /><path
         d="m 17262.1,3917.8 v -259.9 c 9.4,-11.8 23.1,-21 39.1,-26.2 V 3944 c -16,-5.2 -29.7,-14.5 -39.1,-26.2"
         style="fill:#ffa412;fill-opacity:1;fill-rule:nonzero;stroke:none"
         id="path380" /><path
         d="m 16966.2,4200.4 v -181.7 c 0,-14.5 5.2,-27.9 14.2,-39.1 9.5,-11.8 23.2,-21 39.2,-26.2 4.9,-1.6 10,-2.8 15.2,-3.6 4.8,-0.7 9.7,-1.1 14.7,-1.1 h 3446.1 c 44.5,0 81.1,29.6 83.3,66.4 0.1,1.2 0.1,2.4 0.1,3.6 v 181.7 c 0,1.2 0,2.4 -0.1,3.6 -2.1,34 -33.5,61.9 -73.4,65.9 -3.2,0.3 -6.6,0.5 -9.9,0.5 h -3446.1 c -5,0 -9.9,-0.4 -14.7,-1.1 -5.2,-0.8 -10.3,-2 -15.2,-3.6 -16,-5.2 -29.7,-14.5 -39.2,-26.2 -9,-11.2 -14.2,-24.6 -14.2,-39.1"
         style="fill:#ffc76c;fill-opacity:1;fill-rule:nonzero;stroke:none"
         id="path382" /><path
         d="m 18658.4,3948.7 h 1846.2 c 39.6,0 72.3,29.6 74.3,66.4 0.1,1.2 0.1,2.4 0.1,3.6 v 181.7 c 0,1.2 0,2.4 -0.1,3.6 -1.8,34 -29.9,61.9 -65.5,65.9 -2.9,0.3 -5.8,0.5 -8.8,0.5 h -1619.5 l -0.2,-0.5 c -25.9,-94.7 -86.2,-225.3 -226.5,-321.2"
         style="fill:#ffae39;fill-opacity:1;fill-rule:nonzero;stroke:none"
         id="path384" /><path
         d="m 17385.5,3948.7 h 39.1 v 321.7 h -39.1 v -321.7"
         style="fill:#ffa412;fill-opacity:1;fill-rule:nonzero;stroke:none"
         id="path386" /><path
         d="m 17518,3948.7 h 39.2 v 321.7 h -39.2 v -321.7"
         style="fill:#ffa412;fill-opacity:1;fill-rule:nonzero;stroke:none"
         id="path388" /><path
         d="m 17677,3948.7 h 39.2 v 321.7 h -39.2 v -321.7"
         style="fill:#ffa412;fill-opacity:1;fill-rule:nonzero;stroke:none"
         id="path390" /><path
         d="m 17920.7,3948.7 h 39.2 v 321.7 h -39.2 v -321.7"
         style="fill:#ffa412;fill-opacity:1;fill-rule:nonzero;stroke:none"
         id="path392" /><path
         d="m 18178.4,3948.7 h 39.2 v 321.7 h -39.2 v -321.7"
         style="fill:#ffa412;fill-opacity:1;fill-rule:nonzero;stroke:none"
         id="path394" /><path
         d="m 18573.5,3948.7 h 39.1 v 321.7 h -39.1 v -321.7"
         style="fill:#ffa412;fill-opacity:1;fill-rule:nonzero;stroke:none"
         id="path396" /><path
         d="m 18943.4,3948.7 h 39.1 v 321.7 h -39.1 v -321.7"
         style="fill:#ffa412;fill-opacity:1;fill-rule:nonzero;stroke:none"
         id="path398" /><path
         d="m 19273.7,3948.7 h 39.1 v 321.7 h -39.1 v -321.7"
         style="fill:#ffa412;fill-opacity:1;fill-rule:nonzero;stroke:none"
         id="path400" /><path
         d="m 17259.3,3948.7 h 39.1 v 321.7 h -39.1 v -321.7"
         style="fill:#ffa412;fill-opacity:1;fill-rule:nonzero;stroke:none"
         id="path402" /><path
         d="m 17175.9,3948.7 h 39.2 v 321.7 h -39.2 v -321.7"
         style="fill:#ffa412;fill-opacity:1;fill-rule:nonzero;stroke:none"
         id="path404" /><path
         d="m 17095.4,3948.7 h 39.2 v 321.7 h -39.2 v -321.7"
         style="fill:#ffa412;fill-opacity:1;fill-rule:nonzero;stroke:none"
         id="path406" /><path
         d="m 17034.8,4269.3 v -319.5 c 4.8,-0.7 9.7,-1.1 14.7,-1.1 h 24.5 v 321.7 h -24.5 c -5,0 -9.9,-0.4 -14.7,-1.1"
         style="fill:#ffa412;fill-opacity:1;fill-rule:nonzero;stroke:none"
         id="path408" /><path
         d="m 16980.4,4239.5 v -259.9 c 9.5,-11.8 23.2,-21 39.2,-26.2 v 312.3 c -16,-5.2 -29.7,-14.5 -39.2,-26.2"
         style="fill:#ffa412;fill-opacity:1;fill-rule:nonzero;stroke:none"
         id="path410" /><path
         d="m 17418.6,4521.6 v -181.7 c 0,-14.5 5.2,-27.9 14.3,-39.1 9.5,-11.7 23.1,-21 39.1,-26.2 4.9,-1.6 10,-2.8 15.2,-3.6 1.7,-0.2 3.3,-0.5 4.9,-0.6 1.3,-0.2 2.6,-0.2 3.9,-0.3 l 1.9,-0.1 c 1.3,-0.1 2.7,-0.1 4.1,-0.1 h 3446 c 44.5,0 81.1,29.6 83.3,66.4 0.1,1.2 0.1,2.4 0.1,3.6 v 181.7 c 0,1.2 0,2.4 -0.1,3.6 -2.2,36.8 -38.8,66.4 -83.3,66.4 h -3446 c -1.5,0 -3,0 -4.5,-0.1 -3.5,-0.2 -6.9,-0.5 -10.3,-1 -5.2,-0.8 -10.3,-2 -15.2,-3.6 -2.5,-0.8 -4.9,-1.7 -7.2,-2.7 -1.5,-0.6 -2.9,-1.3 -4.3,-2 l -0.5,-0.2 c -1.4,-0.7 -2.8,-1.4 -4.2,-2.2 l -0.7,-0.4 c -1.3,-0.7 -2.5,-1.5 -3.7,-2.3 -3,-1.8 -5.7,-3.8 -8.3,-6 l -2.4,-2.1 -0.4,-0.4 -1.4,-1.3 -0.3,-0.3 -2.4,-2.5 c -1.2,-1.3 -2.3,-2.5 -3.3,-3.8 -9.1,-11.2 -14.3,-24.6 -14.3,-39.1"
         style="fill:#ffc76c;fill-opacity:1;fill-rule:nonzero;stroke:none"
         id="path412" /><path
         d="M 19110.8,4269.9 H 20957 c 39.6,0 72.3,29.6 74.3,66.4 0.1,1.2 0.1,2.4 0.1,3.6 v 181.7 c 0,1.2 0,2.4 -0.1,3.6 -2,36.8 -34.7,66.4 -74.3,66.4 h -1619.5 c -0.6,-2.4 -1.3,-4.9 -2.1,-7.4 -26.9,-93.9 -87.4,-220.3 -223.9,-313.8 l -0.7,-0.5"
         style="fill:#ffae39;fill-opacity:1;fill-rule:nonzero;stroke:none"
         id="path414" /><path
         d="m 17837.9,4269.9 h 39.2 v 321.7 h -39.2 v -321.7"
         style="fill:#ffa412;fill-opacity:1;fill-rule:nonzero;stroke:none"
         id="path416" /><path
         d="m 17970.5,4269.9 h 39.1 v 321.7 h -39.1 v -321.7"
         style="fill:#ffa412;fill-opacity:1;fill-rule:nonzero;stroke:none"
         id="path418" /><path
         d="m 18129.5,4269.9 h 39.1 v 321.7 h -39.1 v -321.7"
         style="fill:#ffa412;fill-opacity:1;fill-rule:nonzero;stroke:none"
         id="path420" /><path
         d="m 18373.2,4269.9 h 39.1 v 321.7 h -39.1 v -321.7"
         style="fill:#ffa412;fill-opacity:1;fill-rule:nonzero;stroke:none"
         id="path422" /><path
         d="m 18630.9,4269.9 h 39.1 v 321.7 h -39.1 v -321.7"
         style="fill:#ffa412;fill-opacity:1;fill-rule:nonzero;stroke:none"
         id="path424" /><path
         d="m 19025.9,4269.9 h 39.2 v 321.7 h -39.2 v -321.7"
         style="fill:#ffa412;fill-opacity:1;fill-rule:nonzero;stroke:none"
         id="path426" /><path
         d="m 19395.8,4269.9 h 39.2 v 321.7 h -39.2 v -321.7"
         style="fill:#ffa412;fill-opacity:1;fill-rule:nonzero;stroke:none"
         id="path428" /><path
         d="m 19726.1,4269.9 h 39.2 v 321.7 h -39.2 v -321.7"
         style="fill:#ffa412;fill-opacity:1;fill-rule:nonzero;stroke:none"
         id="path430" /><path
         d="m 17711.7,4269.9 h 39.2 v 321.7 h -39.2 v -321.7"
         style="fill:#ffa412;fill-opacity:1;fill-rule:nonzero;stroke:none"
         id="path432" /><path
         d="m 17628.3,4269.9 h 39.2 v 321.7 h -39.2 v -321.7"
         style="fill:#ffa412;fill-opacity:1;fill-rule:nonzero;stroke:none"
         id="path434" /><path
         d="m 17547.8,4269.9 h 39.2 v 321.7 h -39.2 v -321.7"
         style="fill:#ffa412;fill-opacity:1;fill-rule:nonzero;stroke:none"
         id="path436" /><path
         d="M 17487.2,4590.5 V 4271 c 4.8,-0.7 9.7,-1.1 14.8,-1.1 h 24.4 v 321.7 h -24.4 c -5.1,0 -10,-0.4 -14.8,-1.1"
         style="fill:#ffa412;fill-opacity:1;fill-rule:nonzero;stroke:none"
         id="path438" /><path
         d="m 17432.9,4560.7 v -259.9 c 9.5,-11.7 23.1,-21 39.1,-26.2 v 312.3 c -16,-5.2 -29.6,-14.4 -39.1,-26.2"
         style="fill:#ffa412;fill-opacity:1;fill-rule:nonzero;stroke:none"
         id="path440" /><path
         d="m 17165.2,4835.9 v -181.7 c 0,-14.5 5.3,-27.9 14.3,-39.1 9.5,-11.8 23.1,-21 39.1,-26.2 4.9,-1.6 10,-2.8 15.3,-3.6 4.8,-0.7 9.7,-1.1 14.7,-1.1 h 3446.1 c 13.4,0 26,2.6 37.2,7.4 25.2,10.6 43.1,31.6 45.8,56.1 0.1,1 0.2,1.9 0.3,2.9 0,1.2 0.1,2.4 0.1,3.6 v 181.7 c 0,1.2 -0.1,2.4 -0.1,3.6 -2.1,34.1 -33.6,61.9 -73.4,65.9 -3.3,0.3 -6.5,0.5 -9.9,0.5 h -3446.1 c -5,0 -9.9,-0.4 -14.7,-1.1 -5.3,-0.8 -10.4,-2 -15.3,-3.6 -16,-5.2 -29.6,-14.5 -39.1,-26.2 -9,-11.2 -14.3,-24.6 -14.3,-39.1"
         style="fill:#ffc76c;fill-opacity:1;fill-rule:nonzero;stroke:none"
         id="path442" /><path
         d="m 18857.4,4584.2 h 1846.2 c 12,0 23.3,2.6 33.3,7.4 22.4,10.6 38.4,31.6 40.8,56.1 0.1,1 0.2,1.9 0.3,2.9 0,1.2 0.1,2.4 0.1,3.6 v 181.7 c 0,1.2 -0.1,2.4 -0.1,3.6 -1.9,34 -30,61.9 -65.6,65.9 -2.8,0.3 -5.8,0.5 -8.8,0.5 h -1619.4 l -0.2,-0.5 c -25.2,-92.2 -83.2,-218.7 -216,-313.8 -3.4,-2.5 -7,-5 -10.6,-7.4"
         style="fill:#ffae39;fill-opacity:1;fill-rule:nonzero;stroke:none"
         id="path444" /><path
         d="m 17584.5,4584.2 h 39.2 v 321.7 h -39.2 v -321.7"
         style="fill:#ffa412;fill-opacity:1;fill-rule:nonzero;stroke:none"
         id="path446" /><path
         d="m 17717.1,4584.2 h 39.2 v 321.7 h -39.2 v -321.7"
         style="fill:#ffa412;fill-opacity:1;fill-rule:nonzero;stroke:none"
         id="path448" /><path
         d="m 17876.1,4584.2 h 39.2 v 321.7 h -39.2 v -321.7"
         style="fill:#ffa412;fill-opacity:1;fill-rule:nonzero;stroke:none"
         id="path450" /><path
         d="m 18119.8,4584.2 h 39.2 v 321.7 h -39.2 v -321.7"
         style="fill:#ffa412;fill-opacity:1;fill-rule:nonzero;stroke:none"
         id="path452" /><path
         d="m 18377.5,4584.2 h 39.2 v 321.7 h -39.2 v -321.7"
         style="fill:#ffa412;fill-opacity:1;fill-rule:nonzero;stroke:none"
         id="path454" /><path
         d="m 18772.6,4584.2 h 39.1 v 321.7 h -39.1 v -321.7"
         style="fill:#ffa412;fill-opacity:1;fill-rule:nonzero;stroke:none"
         id="path456" /><path
         d="m 19142.5,4584.2 h 39.1 v 321.7 h -39.1 v -321.7"
         style="fill:#ffa412;fill-opacity:1;fill-rule:nonzero;stroke:none"
         id="path458" /><path
         d="m 19472.7,4584.2 h 39.2 v 321.7 h -39.2 v -321.7"
         style="fill:#ffa412;fill-opacity:1;fill-rule:nonzero;stroke:none"
         id="path460" /><path
         d="m 17458.3,4584.2 h 39.2 v 321.7 h -39.2 v -321.7"
         style="fill:#ffa412;fill-opacity:1;fill-rule:nonzero;stroke:none"
         id="path462" /><path
         d="m 17375,4584.2 h 39.1 v 321.7 h -39.1 v -321.7"
         style="fill:#ffa412;fill-opacity:1;fill-rule:nonzero;stroke:none"
         id="path464" /><path
         d="m 17294.5,4584.2 h 39.1 v 321.7 h -39.1 v -321.7"
         style="fill:#ffa412;fill-opacity:1;fill-rule:nonzero;stroke:none"
         id="path466" /><path
         d="m 17233.9,4904.8 v -319.5 c 4.8,-0.7 9.7,-1.1 14.7,-1.1 h 24.5 v 321.7 h -24.5 c -5,0 -9.9,-0.4 -14.7,-1.1"
         style="fill:#ffa412;fill-opacity:1;fill-rule:nonzero;stroke:none"
         id="path468" /><path
         d="m 17179.5,4875 v -259.9 c 9.5,-11.8 23.1,-21 39.1,-26.2 v 312.3 c -16,-5.2 -29.6,-14.5 -39.1,-26.2"
         style="fill:#ffa412;fill-opacity:1;fill-rule:nonzero;stroke:none"
         id="path470" /><path
         d="m 17057.4,5157.1 v -181.7 c 0,-14.5 5.2,-27.9 14.3,-39.1 9.4,-11.8 23.1,-21 39.1,-26.2 4.9,-1.6 10,-2.8 15.2,-3.6 1.7,-0.2 3.3,-0.5 4.9,-0.6 0.8,-0.1 1.8,-0.2 2.7,-0.2 0.9,-0.1 1.8,-0.2 2.7,-0.2 1.5,-0.1 3,-0.1 4.4,-0.1 h 3446.1 c 44.5,0 81.1,29.6 83.3,66.4 0.1,1.2 0.1,2.4 0.1,3.6 v 181.7 c 0,1.2 0,2.4 -0.1,3.6 -2.2,36.8 -38.8,66.4 -83.3,66.4 h -3446.1 c -5,0 -9.9,-0.4 -14.7,-1.1 -5.2,-0.8 -10.3,-2 -15.2,-3.6 -16,-5.2 -29.7,-14.5 -39.1,-26.2 -9.1,-11.2 -14.3,-24.6 -14.3,-39.1"
         style="fill:#ffc76c;fill-opacity:1;fill-rule:nonzero;stroke:none"
         id="path472" /><path
         d="m 18749.6,4905.4 h 1846.2 c 39.6,0 72.3,29.6 74.3,66.4 0.1,1.2 0.1,2.4 0.1,3.6 v 181.7 c 0,1.2 0,2.4 -0.1,3.6 -2,36.8 -34.7,66.4 -74.3,66.4 h -1619.5 c -25.8,-94.6 -85.9,-225.2 -226,-321.2 l -0.7,-0.5"
         style="fill:#ffae39;fill-opacity:1;fill-rule:nonzero;stroke:none"
         id="path474" /><path
         d="m 17476.7,4905.4 h 39.2 v 321.7 h -39.2 v -321.7"
         style="fill:#ffa412;fill-opacity:1;fill-rule:nonzero;stroke:none"
         id="path476" /><path
         d="m 17609.3,4905.4 h 39.1 v 321.7 h -39.1 v -321.7"
         style="fill:#ffa412;fill-opacity:1;fill-rule:nonzero;stroke:none"
         id="path478" /><path
         d="m 17768.3,4905.4 h 39.1 v 321.7 h -39.1 v -321.7"
         style="fill:#ffa412;fill-opacity:1;fill-rule:nonzero;stroke:none"
         id="path480" /><path
         d="m 18011.9,4905.4 h 39.2 v 321.7 h -39.2 v -321.7"
         style="fill:#ffa412;fill-opacity:1;fill-rule:nonzero;stroke:none"
         id="path482" /><path
         d="m 18269.6,4905.4 h 39.2 v 321.7 h -39.2 v -321.7"
         style="fill:#ffa412;fill-opacity:1;fill-rule:nonzero;stroke:none"
         id="path484" /><path
         d="m 18664.7,4905.4 h 39.2 v 321.7 h -39.2 v -321.7"
         style="fill:#ffa412;fill-opacity:1;fill-rule:nonzero;stroke:none"
         id="path486" /><path
         d="m 19034.6,4905.4 h 39.2 v 321.7 h -39.2 v -321.7"
         style="fill:#ffa412;fill-opacity:1;fill-rule:nonzero;stroke:none"
         id="path488" /><path
         d="m 19364.9,5227.1 v -321.7 h 39.2 v 321.7 h -39.2"
         style="fill:#ffa412;fill-opacity:1;fill-rule:nonzero;stroke:none"
         id="path490" /><path
         d="m 17350.5,4905.4 h 39.2 v 321.7 h -39.2 v -321.7"
         style="fill:#ffa412;fill-opacity:1;fill-rule:nonzero;stroke:none"
         id="path492" /><path
         d="m 17267.1,4905.4 h 39.2 v 321.7 h -39.2 v -321.7"
         style="fill:#ffa412;fill-opacity:1;fill-rule:nonzero;stroke:none"
         id="path494" /><path
         d="m 17186.6,4905.4 h 39.2 v 321.7 h -39.2 v -321.7"
         style="fill:#ffa412;fill-opacity:1;fill-rule:nonzero;stroke:none"
         id="path496" /><path
         d="m 17126,5226 v -319.5 c 4.8,-0.7 9.7,-1.1 14.7,-1.1 h 24.5 v 321.7 h -24.5 c -5,0 -9.9,-0.4 -14.7,-1.1"
         style="fill:#ffa412;fill-opacity:1;fill-rule:nonzero;stroke:none"
         id="path498" /><path
         d="m 17071.7,5196.2 v -259.9 c 9.4,-11.7 23.1,-21 39.1,-26.2 v 312.3 c -16,-5.2 -29.7,-14.5 -39.1,-26.2"
         style="fill:#ffa412;fill-opacity:1;fill-rule:nonzero;stroke:none"
         id="path500" /><path
         d="m 22843.4,3366.1 c 0,904.5 -733.3,1637.8 -1637.8,1637.8 -904.5,0 -1637.8,-733.3 -1637.8,-1637.8 0,-904.5 733.3,-1637.8 1637.8,-1637.8 904.5,0 1637.8,733.3 1637.8,1637.8"
         style="fill:#e2810e;fill-opacity:1;fill-rule:nonzero;stroke:none"
         id="path502" /><path
         d="m 22986.3,3366.1 c 0,904.5 -733.3,1637.8 -1637.8,1637.8 -904.5,0 -1637.8,-733.3 -1637.8,-1637.8 0,-904.5 733.3,-1637.8 1637.8,-1637.8 904.5,0 1637.8,733.3 1637.8,1637.8"
         style="fill:#ffc76c;fill-opacity:1;fill-rule:nonzero;stroke:none"
         id="path504" /><path
         d="m 19945.3,3346.8 c 0,-773.8 629.5,-1403.2 1403.2,-1403.2 773.7,0 1403.2,629.4 1403.2,1403.2 0,773.7 -629.5,1403.2 -1403.2,1403.2 -773.7,0 -1403.2,-629.5 -1403.2,-1403.2 z m 348,-1055.2 c -281.8,281.9 -437,656.6 -437,1055.2 0,398.6 155.2,773.3 437,1055.1 281.9,281.9 656.6,437.1 1055.2,437.1 398.6,0 773.3,-155.2 1055.1,-437.1 281.9,-281.8 437.1,-656.5 437.1,-1055.1 0,-398.6 -155.2,-773.3 -437.1,-1055.2 -281.8,-281.8 -656.5,-437 -1055.1,-437 -398.6,0 -773.3,155.2 -1055.2,437"
         style="fill:#ffa412;fill-opacity:1;fill-rule:nonzero;stroke:none"
         id="path506" /><path
         d="m 21554.4,2913.7 c 3.8,32.2 2.6,61 -3.5,86.6 -6.2,25.6 -18.4,49.6 -36.7,72 -18.2,22.3 -42.6,43.9 -73.2,64.6 -30.6,20.7 -68.4,41.9 -113.5,63.6 -77.5,37.9 -147.4,76.4 -209.7,115.2 -62.3,38.9 -114.6,81.4 -156.8,127.6 -42.2,46.2 -73,98 -92.6,155.5 -19.5,57.5 -24.8,123.8 -15.9,198.8 7.7,65.2 26.3,123.2 55.8,174.1 29.5,50.9 68,93.7 115.6,128.5 47.6,34.7 102.8,61 165.6,78.8 62.7,17.8 131.7,25.8 206.7,23.8 l 29.2,246 198,-23.5 -29.6,-249.4 c 69.8,-17.6 131.9,-44 186.3,-79.2 54.4,-35.2 99.1,-77.8 134.1,-127.8 35.1,-50 59.9,-107.2 74.4,-171.4 14.5,-64.3 17.3,-134.8 8.2,-211.4 l -357.6,42.4 c 10.9,92 -1.3,163.2 -36.7,213.6 -35.5,50.4 -87.4,79.7 -155.9,87.9 -37.1,4.4 -69.7,3 -97.7,-4.2 -28,-7.1 -51.8,-18.7 -71.2,-34.6 -19.5,-16 -34.8,-35.8 -46,-59.3 -11.1,-23.5 -18.4,-49.5 -21.7,-77.8 -3.4,-28.4 -2.3,-54.5 3.2,-78.5 5.5,-24 17.2,-46.9 35.1,-68.9 17.9,-21.9 42.5,-43.5 73.9,-64.7 31.3,-21.2 70.7,-43.9 118,-68.2 76.4,-39.3 145.6,-78.6 207.5,-117.8 61.8,-39.2 113.8,-82.1 156,-128.7 42.1,-46.5 73,-98.6 92.5,-156.1 19.5,-57.5 24.9,-123.3 16,-197.7 -8,-67.4 -26.9,-126.5 -56.8,-177.4 -29.8,-50.8 -68.6,-93.2 -116.1,-127.2 -47.5,-34 -103,-59.3 -166.4,-75.8 -63.5,-16.6 -132.7,-23.9 -207.8,-22 l -27.1,-228.7 -196.7,23.3 27,227.6 c -67.7,15 -132.1,37.8 -193.3,68.4 -61.2,30.5 -114,70.4 -158.3,119.6 -44.4,49.1 -77.5,108.4 -99.4,177.8 -21.8,69.5 -27.3,150.1 -16.4,242.1 l 357.5,-42.5 c -6.4,-54.3 -4.2,-100.7 6.8,-138.8 10.9,-38.3 27.9,-69.8 50.9,-94.7 22.9,-24.8 50.2,-43.6 81.7,-56.3 31.6,-12.7 64.2,-21 98.1,-25 38.7,-4.6 73.3,-3.7 103.8,2.8 30.5,6.5 56.6,17.4 78.5,32.7 21.9,15.2 39.3,34.3 52,57.3 12.8,23 20.8,48.6 24.2,77"
         style="fill:#ffa412;fill-opacity:1;fill-rule:nonzero;stroke:none"
         id="path508" /><path
         d="m 14217.3,3818.6 c 0,0 -206.7,-291 -396.2,-295 -189.4,-4 -477.7,134.9 -477.7,134.9 0,0 -174,387.7 -56,539.5 0,0 118.3,51.9 242.1,-39.8 21.2,-15.9 42.8,-35.8 64,-61.4 30.1,-36.1 63.8,-56.6 99.5,-67.4 135.2,-41.2 295.7,55.6 355.7,-37.8 35.1,-54.3 73.2,-95.1 104.6,-123.7 37.1,-33.1 64,-49.3 64,-49.3"
         style="fill:#ffeddc;fill-opacity:1;fill-rule:nonzero;stroke:none"
         id="path510" /><path
         d="m 11522.7,1719.7 c 0,0 730.6,1770.2 2045.6,1803.9 0,0 1213.8,-134.9 1281.2,-1803.9 h -3326.8"
         style="fill:#ffeddc;fill-opacity:1;fill-rule:nonzero;stroke:none"
         id="path512" /><path
         d="m 13208,3469.5 c 0,0 527.1,-117.2 689.7,-48.3 0,0 24.6,220.4 -197.4,189.5 -151.9,-21.1 -250.9,51.9 -309.1,81.5 -82.3,41.9 -205.1,-130.5 -183.2,-222.7"
         style="fill:#2b478b;fill-opacity:1;fill-rule:nonzero;stroke:none"
         id="path514" /><path
         d="m 13666.7,3801.8 c -33.7,-25.3 -137.2,356.4 -137.2,356.4 21.2,-15.9 42.8,-35.8 64,-61.4 30.1,-36.1 63.8,-56.6 99.5,-67.4 0.4,-11.2 6.4,-203 -26.3,-227.6"
         style="fill:#e5c1a1;fill-opacity:1;fill-rule:nonzero;stroke:none"
         id="path516" /><path
         d="m 14153.3,3867.9 c -7.5,-4.4 -251.2,-150.4 -284.3,-150.4 -33.7,0 179.7,274.1 179.7,274.1 35.1,-54.3 73.2,-95.1 104.6,-123.7"
         style="fill:#e5c1a1;fill-opacity:1;fill-rule:nonzero;stroke:none"
         id="path518" /><path
         d="m 12236.4,2214.2 c -13.5,11.6 517,781.2 663.1,786.8 146.1,5.6 474.4,-168.6 712.1,-191.1 237.6,-22.5 468,45 513,-95.5 45,-140.5 168.6,-638.6 92.7,-718.3 -75.8,-79.7 -1689.2,-31.1 -1980.9,218.1"
         style="fill:#f9ddbf;fill-opacity:1;fill-rule:nonzero;stroke:none"
         id="path520" /><path
         d="m 17284,12786.8 -49.8,280.9 108.1,19.2 49.4,-278.1 c 14.2,-80 61.6,-114.3 127.6,-102.6 66,11.7 98.9,58.8 85,136.8 l -50,281.5 108.2,19.2 49.2,-277.3 c 26.4,-148.9 -44.1,-236.7 -176.1,-260.2 -132,-23.4 -225.9,36 -251.6,180.6"
         style="fill:#a8d29f;fill-opacity:1;fill-rule:nonzero;stroke:none"
         id="path522" /><path
         d="m 18076.9,12808.1 c 47.8,8.5 73.6,30.5 66.9,68.4 -5.9,33 -34.1,49 -89.6,39.1 l -125,-22.2 19.3,-108.1 z m -63.9,192.9 c 47.7,8.5 75.2,29.3 68.5,67.2 -5.8,32.3 -34.3,46.1 -79.9,38 l -106.8,-19 18.5,-103.9 z m -240.3,162.3 228.2,40.5 c 56.1,10 103.1,2.4 136.2,-20.7 26.5,-18.5 42.5,-43.8 48.8,-78.9 9.8,-55.5 -14.2,-91.6 -45.8,-117.5 60.7,-11.7 101.7,-38.5 113.7,-105.9 15.9,-89.9 -49.1,-147.8 -160,-167.5 l -233.8,-41.5 -87.3,491.5"
         style="fill:#a8d29f;fill-opacity:1;fill-rule:nonzero;stroke:none"
         id="path524" /><path
         d="m 18284.5,13254.2 108.1,19.2 87.3,-491.5 -108.1,-19.2 -87.3,491.5"
         style="fill:#a8d29f;fill-opacity:1;fill-rule:nonzero;stroke:none"
         id="path526" /><path
         d="m 18624.9,3174.2 c 25.3,-29 28.5,-61.5 16,-96.1 l -0.2,-0.5 c -23.2,-64.1 -99.8,-135.6 -188.8,-207.1 -11.4,-9.2 -21.5,-17.5 -30.3,-25.2 -2.3,-2 -4.6,-4.1 -6.8,-6.1 -1.8,-1.6 -3.5,-3.2 -5.3,-4.7 -82.9,-76.5 -51.7,-94.1 -200.8,-249.3 -170,-176.8 -287,-180 -320.3,-163.9 -28.1,13.7 29.1,107.5 92.5,213 3.1,5 6.1,10.2 9.2,15.3 8.5,14 16.9,28.3 25.2,42.4 74.3,126.8 55.3,186.4 37.6,375.2 -14.3,153.5 -238.7,857.3 -238.7,857.3 l 325.8,56.1 c 0,0 98.1,-560.5 206.2,-646.8 57.7,-46 122.4,-46.5 178,-80.7 3.9,-2.3 7.8,-4.8 11.5,-7.3 31.6,-20.9 63.8,-42.5 89.2,-71.6"
         style="fill:#ffb27d;fill-opacity:1;fill-rule:nonzero;stroke:none"
         id="path528" /><path
         d="m 18624.9,3174.2 c 25.3,-29 28.5,-61.5 16,-96.1 l -0.2,-0.5 c -28.4,-64 -103.1,-135.2 -189.1,-206.4 -11.3,-9.3 -21.2,-17.9 -30,-25.9 -2.3,-2 -4.6,-4.1 -6.8,-6.1 -1.8,-1.6 -3.5,-3.2 -5.3,-4.7 -82.9,-76.5 -51.7,-94.1 -200.8,-249.3 -170,-176.8 -287,-180 -320.3,-163.9 -28.1,13.7 29.1,107.5 92.5,213 33.1,12.1 186.8,74.5 303,223.2 102.3,130.6 170.6,298.4 240.3,395.6 3.9,-2.3 7.8,-4.8 11.5,-7.3 31.6,-20.9 63.8,-42.5 89.2,-71.6"
         style="fill:#233862;fill-opacity:1;fill-rule:nonzero;stroke:none"
         id="path530" /><path
         d="m 15998.3,3377.7 c -20.1,-100.6 -163.5,-83.8 -323.6,-44.7 -160.1,39.1 -122,-7.4 -349.9,17.9 -227.9,25.2 -297,110.2 -303.9,144.1 -6.3,30 106.4,40.6 227.1,54.5 15.2,1.7 30.5,3.6 45.7,5.5 136.4,17.1 236.3,105.1 360.1,177.4 117.4,68.4 292.5,347.3 292.5,347.3 l 312.5,-24.7 c 0,0 -164,-249.1 -227.4,-357.4 -37.3,-63.7 -35.4,-148 -30.7,-213 2.4,-35.4 4.7,-71.5 -2.4,-106.9"
         style="fill:#ffb27d;fill-opacity:1;fill-rule:nonzero;stroke:none"
         id="path532" /><path
         d="m 15674.7,3333 c -160.1,39.1 -122,-7.4 -349.9,17.9 -227.9,25.2 -297,110.2 -303.9,144.1 -6.3,30 106.4,40.6 227.1,54.5 l 1.2,-2.3 c 0,0 136.6,-96.9 326.3,-101.4 154.7,-3.8 318.4,40.5 425.2,38.8 2.4,-35.4 4.7,-71.5 -2.4,-106.9 -20.1,-100.6 -163.5,-83.8 -323.6,-44.7"
         style="fill:#233862;fill-opacity:1;fill-rule:nonzero;stroke:none"
         id="path534" /><path
         d="m 17196,5376.1 292.2,-786.2 381.4,-1026.5 c 0,0 103.5,-10 202.7,18.5 91.2,26.4 195.9,95.4 195.9,95.4 0,0 -105.9,1102.2 -303.5,1734.9 -50.6,162.4 -107.3,293.8 -170,367.7 -306.3,362 -598.7,-403.8 -598.7,-403.8"
         style="fill:#233862;fill-opacity:1;fill-rule:nonzero;stroke:none"
         id="path536" /><path
         d="m 17493.1,6624.7 c 191.4,61.7 737.3,-17.6 1285.7,-124.9 l 114.8,189.4 1184.5,92.5 c 0,0 390.9,-866.8 176.9,-1419.1 -31.4,-81.2 -93.9,-133.3 -200.5,-135 h -17.3 c 0,0 -705,0.4 -933.9,0.4 -589.1,0 -1246.7,405 -1331.7,422 -139.3,27.8 -195,-250.7 -334.2,-543.1 C 17298.1,4814.5 16128.5,3812 16128.5,3812 c 0,0 -179.8,-1.8 -254,26 -79.9,30 -109.1,68.9 -109.1,68.9 0,0 1296,2578.5 1727.7,2717.8"
         style="fill:#2b478b;fill-opacity:1;fill-rule:nonzero;stroke:none"
         id="path538" /><path
         d="m 18563.6,8336 c 373.6,-303.8 1273.6,-830.3 1278.6,-828 0,0 288.3,-172.7 485,-88 327.9,141.3 579.7,635.8 126.1,1183 -226.1,272.9 -413.7,362.8 -369.6,725.6 47.7,393 -129.8,887.2 -582.3,908 -37.8,1.7 -266.9,32.3 -430.4,-19 -416.7,-130.8 -1113.5,-1680.3 -507.4,-1881.6"
         style="fill:#233862;fill-opacity:1;fill-rule:nonzero;stroke:none"
         id="path540" /><path
         d="m 20159,6653.1 c -24.3,-67.3 -664.8,-127.3 -1029.1,-103.1 -115.8,7.5 -203.9,23.8 -235.2,50.8 -130,112.9 -117,-135.4 -134.9,1052.7 -8.6,579.4 491.8,1095.5 491.8,1095.5 0,0 39.9,-247.5 536.1,47.1 17.7,10.3 213.1,-279 401.2,-635.3 207.2,-393.7 -4.9,-1438.4 -29.9,-1507.7"
         style="fill:#aec3ff;fill-opacity:1;fill-rule:nonzero;stroke:none"
         id="path542" /><path
         d="m 17488.2,4589.9 381.4,-1026.5 c 0,0 103.5,-10 202.7,18.5 91.2,26.4 195.9,95.4 195.9,95.4 0,0 -105.9,1102.2 -303.5,1734.9 l -476.5,-822.3"
         style="fill:#2b478b;fill-opacity:1;fill-rule:nonzero;stroke:none"
         id="path544" /><path
         d="m 19251.5,8749.1 c 0,0 -453,-111.1 -570.5,-306.4 -143.1,-237.7 -856.7,-1309.9 -856.7,-1309.9 0,0 703.5,-248.8 823.4,-128.9 119.9,119.9 417.2,1112.4 417.2,1112.4 l 186.6,632.8"
         style="fill:#aec3ff;fill-opacity:1;fill-rule:nonzero;stroke:none"
         id="path546" /><path
         d="m 19788.9,8795.4 c 1.9,-0.3 -182.8,-170.4 -318.2,-219.6 -53,-19.3 -141,-40.5 -141,-40.5 0,0 -70.7,71.5 -71.7,72.5 -62.8,58.6 0.3,75.5 -9.2,186.4 -0.5,5.3 -0.9,10.7 -1.5,16 -12.7,124.1 -48.5,259.9 -50.8,268.8 l -0.2,0.4 438.4,125.3 -14.1,-24.2 c 27,-227.5 108.7,-378.5 168.3,-385.1"
         style="fill:#ffb27d;fill-opacity:1;fill-rule:nonzero;stroke:none"
         id="path548" /><path
         d="m 19634.7,9204.7 c -42.5,-127.4 -158.5,-298.4 -395,-335.2 -22.8,136.7 -40.9,200.6 -43.2,209.5 l -0.2,0.4 438.4,125.3"
         style="fill:#ed975d;fill-opacity:1;fill-rule:nonzero;stroke:none"
         id="path550" /><path
         d="m 19123.4,8947.3 c 0,0 590.9,39.3 560.8,406.9 -30.2,367.6 25.8,620.3 -352.7,610.8 -378.6,-9.6 -440.3,-155.9 -460.1,-281 -19.8,-125.2 97.5,-737.4 252,-736.7"
         style="fill:#ffb27d;fill-opacity:1;fill-rule:nonzero;stroke:none"
         id="path552" /><path
         d="m 19017.2,9971.5 c 0,0 146.8,-430.8 495.4,-480.8 254.3,-36.6 355.3,32.2 355.3,32.2 0,0 -142,134.9 -218.9,342.3 -22.7,61.2 -76.2,105.7 -140.7,115.6 -181,28 -414.7,147.8 -491.1,-9.3"
         style="fill:#233862;fill-opacity:1;fill-rule:nonzero;stroke:none"
         id="path554" /><path
         d="m 19142.4,9895.2 c 0,0 -105.5,-42.6 -179.1,-200.1 -40.2,-86.1 -69.3,-291 -44.4,-375.5 0,0 -169.9,393 -46.9,570.2 130.4,187.9 270.4,5.4 270.4,5.4"
         style="fill:#233862;fill-opacity:1;fill-rule:nonzero;stroke:none"
         id="path556" /><path
         d="m 19248.8,8794.2 c 0,0 36.1,-218.1 80.9,-258.9 0,0 -113.3,41.9 -167.1,188.4 0,0 39.6,65.5 86.2,70.5"
         style="fill:#91b0f2;fill-opacity:1;fill-rule:nonzero;stroke:none"
         id="path558" /><path
         d="m 18827.3,8052.3 c 0,0 -330,-395.9 -289.4,-539.3 40.7,-143.3 269.2,-143.3 269.2,-143.3 0,0 -42.7,305.4 0,464.4 42.6,158.9 69.4,227.6 20.2,218.2"
         style="fill:#91b0f2;fill-opacity:1;fill-rule:nonzero;stroke:none"
         id="path560" /><path
         d="m 19568.1,6911.7 c 0,0 475.3,289.7 469.1,458 -6.3,168.3 0.2,477.1 44.8,433.9 44.5,-43.3 185.5,-390.2 171.9,-488.4 -13.5,-98.3 -493.5,-784.2 -552.9,-782.5 -423.7,11.8 -132.9,379 -132.9,379"
         style="fill:#91b0f2;fill-opacity:1;fill-rule:nonzero;stroke:none"
         id="path562" /><path
         d="m 19696.7,8896.5 c 0,0 -259.6,-326.5 -367,-361.2 0,0 305,0 520.4,254.6 0,0 -72,105.5 -153.4,106.6"
         style="fill:#91b0f2;fill-opacity:1;fill-rule:nonzero;stroke:none"
         id="path564" /><path
         d="m 17291.7,7264.6 c 0,665.3 539.3,1204.7 1204.6,1204.7 665.3,0 1204.7,-539.4 1204.7,-1204.7 0,-665.3 -539.4,-1204.6 -1204.7,-1204.6 -665.3,0 -1204.6,539.3 -1204.6,1204.6"
         style="fill:#e2810e;fill-opacity:1;fill-rule:nonzero;stroke:none"
         id="path566" /><path
         d="m 17186.6,7264.6 c 0,665.3 539.3,1204.7 1204.6,1204.7 665.3,0 1204.7,-539.4 1204.7,-1204.7 0,-665.3 -539.4,-1204.6 -1204.7,-1204.6 -665.3,0 -1204.6,539.3 -1204.6,1204.6"
         style="fill:#ffc76c;fill-opacity:1;fill-rule:nonzero;stroke:none"
         id="path568" /><path
         d="m 18391.2,8282.5 c -569.1,0 -1032,-463 -1032,-1032.1 0,-569.1 462.9,-1032.1 1032,-1032.1 569.1,0 1032.1,463 1032.1,1032.1 0,569.1 -463,1032.1 -1032.1,1032.1 z m 0,-2129.6 c -293.1,0 -568.8,114.1 -776.1,321.4 -207.3,207.3 -321.4,482.9 -321.4,776.1 0,293.2 114.1,568.8 321.4,776.1 207.3,207.3 483,321.5 776.1,321.5 293.2,0 568.8,-114.2 776.1,-321.5 207.3,-207.3 321.5,-482.9 321.5,-776.1 0,-293.2 -114.2,-568.8 -321.5,-776.1 -207.3,-207.3 -482.9,-321.4 -776.1,-321.4"
         style="fill:#ffa412;fill-opacity:1;fill-rule:nonzero;stroke:none"
         id="path570" /><path
         d="m 18542.3,6931.9 c 2.8,23.6 2,44.9 -2.6,63.7 -4.5,18.8 -13.5,36.5 -26.9,52.9 -13.4,16.5 -31.4,32.3 -53.9,47.6 -22.5,15.2 -50.3,30.8 -83.5,46.7 -57,27.9 -108.4,56.2 -154.2,84.8 -45.8,28.6 -84.3,59.8 -115.3,93.8 -31,34 -53.7,72.1 -68.1,114.4 -14.4,42.3 -18.3,91 -11.7,146.2 5.7,47.9 19.3,90.6 41,128.1 21.7,37.4 50,68.9 85,94.4 35.1,25.6 75.7,44.9 121.8,58 46.2,13.1 96.9,19 152.1,17.6 l 21.4,180.9 145.6,-17.3 -21.7,-183.4 c 51.3,-13 97,-32.4 137,-58.3 40,-25.9 72.9,-57.2 98.7,-94 25.8,-36.8 44,-78.8 54.7,-126.1 10.7,-47.3 12.7,-99.1 6,-155.4 l -263,31.2 c 8,67.6 -1,119.9 -27,157.1 -26.1,37 -64.3,58.6 -114.6,64.6 -27.3,3.2 -51.3,2.2 -71.9,-3.1 -20.6,-5.2 -38.1,-13.8 -52.4,-25.5 -14.3,-11.7 -25.6,-26.2 -33.8,-43.6 -8.2,-17.3 -13.5,-36.4 -16,-57.2 -2.5,-20.9 -1.7,-40.1 2.4,-57.7 4,-17.7 12.6,-34.5 25.8,-50.7 13.1,-16.1 31.3,-32 54.3,-47.6 23.1,-15.6 52,-32.3 86.8,-50.1 56.3,-29 107.1,-57.9 152.6,-86.7 45.5,-28.8 83.8,-60.4 114.8,-94.6 31,-34.3 53.6,-72.6 68,-114.8 14.4,-42.3 18.3,-90.8 11.8,-145.5 -5.9,-49.5 -19.8,-93.1 -41.7,-130.4 -22,-37.4 -50.5,-68.6 -85.5,-93.6 -34.9,-25 -75.7,-43.6 -122.4,-55.8 -46.6,-12.2 -97.6,-17.6 -152.8,-16.2 l -19.9,-168.2 -144.7,17.2 19.8,167.4 c -49.7,11 -97.1,27.8 -142.1,50.2 -45,22.5 -83.9,51.9 -116.5,88 -32.6,36.2 -57,79.8 -73,130.9 -16.1,51 -20.2,110.4 -12.2,178 l 263,-31.2 c -4.7,-40 -3.1,-74.1 5,-102.2 8,-28.1 20.5,-51.3 37.4,-69.6 16.9,-18.3 37,-32.1 60.2,-41.4 23.2,-9.3 47.2,-15.5 72.1,-18.4 28.5,-3.4 53.9,-2.7 76.3,2.1 22.4,4.7 41.7,12.7 57.8,24 16.1,11.2 28.9,25.3 38.2,42.2 9.4,16.8 15.4,35.7 17.8,56.6"
         style="fill:#ffa412;fill-opacity:1;fill-rule:nonzero;stroke:none"
         id="path572" /><path
         d="m 17102.8,7059.2 c 0,0 -13.4,197.9 61.4,190.1 91.7,-9.5 189.2,-227.2 144.5,-269.3 -44.8,-42.1 -204.9,30.4 -205.9,79.2"
         style="fill:#ffb27d;fill-opacity:1;fill-rule:nonzero;stroke:none"
         id="path574" /><path
         d="m 19664.5,6601.2 -111.6,66.9 c 0,0 -69.2,27.6 -110,21.8 -40.8,-5.8 -137.6,11.3 -140.6,-4.5 -3.1,-15.9 93,-86.5 93,-86.5 -57.8,-88.7 -267.2,-105 -283.1,-138.4 -19.3,-40.5 75.3,-78.5 126.6,-100.5 51.3,-22 182.5,-42.1 258.3,15.4 55.4,42.1 146.4,97.5 146.4,97.5 l 21,128.3"
         style="fill:#ffb27d;fill-opacity:1;fill-rule:nonzero;stroke:none"
         id="path576" /><path
         d="m 19787.8,8796 c 0,0 468.8,-30.6 586,-213.5 117.2,-182.8 493.6,-1224.4 432.7,-1543.2 -61,-318.8 -1175.9,-701.4 -1175.9,-701.4 0,0 -49.3,42.8 -49.3,157 0,68.6 35.7,134.8 35.7,134.8 0,0 684,571.6 636.9,685.5 -173.8,420.4 -466.1,1480.8 -466.1,1480.8"
         style="fill:#aec3ff;fill-opacity:1;fill-rule:nonzero;stroke:none"
         id="path578" /><path
         d="m 30295.2,1626.6 -27454.55,9.5 c -19.12,0 -34.77,15.6 -34.76,34.7 l 0.01,21.3 c 0.01,19.1 15.66,34.7 34.78,34.7 l 27454.52,-9.4 c 19.2,0 34.8,-15.7 34.8,-34.8 v -21.2 c 0,-19.2 -15.7,-34.8 -34.8,-34.8"
         style="fill:#2e3552;fill-opacity:1;fill-rule:nonzero;stroke:none"
         id="path580" /></g></g></svg>
